<svg width="468" height="514" viewBox="0 0 468 514" fill="none" xmlns="http://www.w3.org/2000/svg">
<path d="M468 286.556C468 338.856 458.327 385.14 438.98 425.408C419.633 465.676 392.143 496.675 356.51 518.405C320.878 540.135 280.286 551 234.735 551C189.184 551 148.776 540.503 113.51 519.51C78.2449 498.516 50.7551 468.5 31.0408 429.459C11.3265 390.419 0.979592 345.608 0 295.027V264.826C0 212.281 9.61225 165.936 28.8367 125.791C48.0612 85.6455 75.6122 54.6465 111.49 32.7936C147.367 10.9408 188.204 0.0144043 234 0.0144043C279.306 0.0144043 319.714 10.818 355.224 32.4253C390.735 54.0326 418.347 84.7861 438.061 124.686C457.776 164.591 467.755 210.322 468 261.88V286.556ZM336.857 264.289C336.857 211.071 327.98 170.66 310.224 143.057C292.469 115.454 267.061 101.657 234 101.667C169.347 101.667 135.184 150.234 131.51 247.369L131.143 286.726C131.143 339.222 139.837 379.571 157.224 407.773C174.612 435.976 200.449 450.079 234.735 450.084C267.306 450.084 292.408 436.226 310.041 408.51C327.673 380.794 336.612 340.936 336.857 288.936V264.289Z" fill="#E2EAFF"/>
</svg>
