<svg width="66" height="60" viewBox="0 0 66 60" fill="none" xmlns="http://www.w3.org/2000/svg">
<path d="M32.5027 40.9684C34.6655 38.9292 35.9013 37.9405 38.4966 36.2104C38.4348 35.5307 38.373 35.2217 38.3112 34.542C35.7777 36.2104 34.6037 37.199 32.5027 39.1764C32.5027 39.9179 32.5027 40.2886 32.5027 40.9684Z" fill="#3B68CF"/>
<path d="M35.8394 33.1824C38.1875 31.3904 39.4234 30.5871 41.9568 29.4131C42.204 30.4018 42.3894 30.8961 42.6365 31.8848C39.7941 33.1824 38.4347 34.0475 35.963 35.963C35.963 34.8508 35.9012 34.2947 35.8394 33.1824Z" fill="#83CD38"/>
<path d="M40.5356 31.2049C43.2545 29.7219 44.6757 29.1657 47.5181 28.6096C48.1361 29.6601 48.445 30.1544 49.0011 31.2049C45.7262 31.8228 44.1196 32.5025 41.0918 34.1091C40.9064 32.8733 40.7828 32.3171 40.5356 31.2049Z" fill="#4675DF"/>
<path d="M34.2947 43.069C36.581 41.0916 37.9404 40.103 40.7828 38.4346C40.8446 38.9907 40.9064 39.2379 40.9682 39.8558C38.0022 41.586 36.6428 42.6364 34.2947 44.6756C34.3565 43.9958 34.3565 43.6869 34.2947 43.069Z" fill="#FF6742"/>
<path d="M34.2947 41.6478C36.581 39.7322 37.8786 38.7436 40.5975 37.137C40.6592 37.6313 40.721 37.8785 40.7828 38.3728C37.9404 40.0412 36.6428 41.0299 34.2947 43.0072C34.2947 42.5129 34.2947 42.2039 34.2947 41.6478Z" fill="#FF7547"/>
<path d="M32.5027 44.3049C33.924 42.9455 34.6655 42.3275 36.3338 41.0299C36.2721 40.1648 36.2721 39.7323 36.2103 38.8672C34.6037 40.103 33.8622 40.7209 32.5027 42.0186C32.5027 42.9455 32.5027 43.378 32.5027 44.3049Z" fill="#E33C58"/>
<path d="M41.7715 35.8392C43.5635 34.9123 44.4903 34.4798 46.3441 33.8C46.5913 34.3562 46.6531 34.6651 46.9002 35.2213C44.9229 35.901 43.9342 36.3953 42.0804 37.384C41.9569 36.7661 41.8951 36.4571 41.7715 35.8392Z" fill="#FF5780"/>
<path d="M32.5027 42.9456C34.9126 40.6593 36.3956 39.4852 39.4852 37.5079C39.3617 36.7046 39.2999 36.3338 39.2381 35.5305C36.2721 37.3843 34.9126 38.4965 32.5027 40.721C32.5027 41.5861 32.5027 42.0187 32.5027 42.9456Z" fill="#EC3A6C"/>
<path d="M36.9518 34.9744C40.165 32.6263 41.9569 31.6377 45.6645 30.4636C46.1588 31.5759 46.406 32.0702 46.8385 33.1825C42.6984 34.5419 40.6593 35.6541 37.199 38.1876C37.0754 36.8282 37.0136 36.2103 36.9518 34.9744Z" fill="#33DAD3"/>
<path d="M47.8889 32.9971C49.1248 32.6263 49.7427 32.5028 51.0403 32.3174C51.2257 32.5646 51.2875 32.6881 51.4729 32.9971C50.1752 33.1825 49.4955 33.3061 48.1979 33.6768C48.0743 33.4296 48.0125 33.2443 47.8889 32.9971Z" fill="#5BE2DE"/>
<path d="M45.4791 31.5141C47.7036 30.7726 48.8158 30.4637 51.1639 30.3401C51.5965 30.8962 51.7818 31.2052 52.2144 31.8231C49.7427 32.0085 48.5069 32.3174 46.1588 33.1207C45.9116 32.441 45.788 32.1321 45.4791 31.5141Z" fill="#2BA2CC"/>
<path d="M54.3771 32.935C55.7365 32.8732 56.4162 32.935 57.7756 33.1204C58.0228 33.3676 58.1464 33.4912 58.3936 33.7383C56.9723 33.553 56.2926 33.553 54.8714 33.553C54.686 33.3058 54.5625 33.1822 54.3771 32.935Z" fill="#FFC0C4"/>
<path d="M47.9507 24.5933C48.754 24.5933 49.1866 24.5933 49.9899 24.7168C50.1753 24.964 50.2988 25.0876 50.546 25.3348C49.6809 25.2112 49.2484 25.2112 48.4451 25.2112C48.1979 24.964 48.1361 24.8404 47.9507 24.5933Z" fill="#4574DE"/>
<path d="M53.1412 31.2051C54.2535 31.2051 54.8096 31.2051 55.8601 31.3287C56.1073 31.5758 56.2308 31.6994 56.478 32.0084C55.3657 31.8848 54.7478 31.823 53.6356 31.8848C53.4502 31.5758 53.3266 31.4522 53.1412 31.2051Z" fill="#53B2DE"/>
<path d="M55.1804 30.2781C56.2308 30.4017 56.7252 30.5252 57.7756 30.8342C58.0846 31.0814 58.2082 31.2667 58.5171 31.5139C57.4667 31.205 56.9105 31.0814 55.8601 30.9578C55.5511 30.6488 55.4275 30.5252 55.1804 30.2781Z" fill="#AEE0F9"/>
<path d="M49.8046 29.2276C50.7932 29.104 51.2876 29.104 52.2145 29.104C52.4616 29.3512 52.5234 29.4748 52.7706 29.7837C51.7819 29.7837 51.2258 29.7837 50.2371 29.9073C50.0517 29.5983 49.9899 29.4748 49.8046 29.2276Z" fill="#7097FC"/>
<path d="M47.7036 26.1379C48.5068 26.0761 48.8776 26.0143 49.6809 26.0761C49.8663 26.3233 49.9899 26.4469 50.1752 26.6941C49.3719 26.6941 48.9394 26.6941 48.0743 26.7558C47.9507 26.5087 47.8889 26.3851 47.7036 26.1379Z" fill="#FFF001"/>
<path d="M40.2885 28.9188C41.0917 28.4863 41.4625 28.3009 42.2658 27.9919C42.3276 28.3009 42.3894 28.4245 42.4512 28.6717C41.6479 29.0424 41.2153 29.2278 40.412 29.6603C40.3502 29.3514 40.3502 29.166 40.2885 28.9188Z" fill="#3DB399"/>
<path d="M39.6705 26.6942C40.4738 26.2617 40.8445 26.0763 41.6478 25.7673C41.7096 26.0145 41.7714 26.1999 41.8332 26.447C41.0299 26.8178 40.5974 27.0032 39.7941 27.4357C39.7323 27.1268 39.7323 27.0032 39.6705 26.6942Z" fill="#045999"/>
<path d="M37.7551 28.6716C38.5584 28.1155 38.9909 27.8683 39.7942 27.4358C39.856 27.7448 39.856 27.8683 39.9178 28.1773C39.0527 28.6098 38.6819 28.857 37.8169 29.4131C37.8169 29.166 37.7551 28.9806 37.7551 28.6716Z" fill="#006181"/>
<path d="M32.5027 39.6707C34.7273 37.5698 36.0249 36.5193 38.7437 34.7274C38.6202 33.6769 38.5584 33.1208 38.373 32.0703C35.8395 33.6769 34.6655 34.6656 32.5027 36.7665C32.5027 37.9405 32.5027 38.4967 32.5027 39.6707Z" fill="#FCEE07"/>
<path d="M32.5027 39.6703C33.4296 38.7434 33.9857 38.3109 34.9744 37.4458C34.9744 36.9514 34.9744 36.7661 34.9126 36.2717C33.8621 37.1368 33.3678 37.5694 32.4409 38.4344C32.5027 38.9906 32.5027 39.2377 32.5027 39.6703Z" fill="#FD8B4D"/>
<path d="M45.1702 28.3009C46.7768 27.8065 47.5801 27.6211 49.2484 27.4976C49.6192 27.9919 49.7428 28.2391 50.1135 28.7334C48.3216 28.857 47.4565 29.0424 45.7263 29.5367C45.4791 29.0424 45.3555 28.7952 45.1702 28.3009Z" fill="#51D4E6"/>
<path d="M33.7386 32.9971C35.7778 31.2052 36.8282 30.4019 38.991 29.166C39.1145 30.0311 39.1763 30.4019 39.2999 31.2669C36.9518 32.6264 35.8396 33.4915 33.8004 35.3452C33.7386 34.4183 33.7386 33.924 33.7386 32.9971Z" fill="#1EAB67"/>
<path d="M32.5027 38.0021C33.8004 36.7662 34.5419 36.1483 36.0249 35.0361C35.9631 34.1092 35.9631 33.6766 35.9013 32.7498C34.4801 33.8002 33.8004 34.4181 32.5027 35.654C32.5027 36.5809 32.5027 37.0752 32.5027 38.0021Z" fill="#2CA67D"/>
<path d="M32.5027 36.7661C33.615 35.7156 34.2329 35.1595 35.4688 34.2326C35.407 33.5529 35.407 33.1822 35.407 32.5024C34.2329 33.4293 33.6768 33.9237 32.5645 34.9741C32.5027 35.7156 32.5027 36.0246 32.5027 36.7661Z" fill="#00997A"/>
<path d="M32.5027 35.5924C33.924 34.233 34.6655 33.6151 36.2103 32.441C36.1485 31.8231 36.1485 31.5142 36.0867 30.8962C34.6037 32.0085 33.8622 32.6264 32.5027 33.924C32.5027 34.6038 32.5027 34.9127 32.5027 35.5924Z" fill="#4293B0"/>
<path d="M32.7498 32.6261C34.7889 30.7106 35.8394 29.9073 38.0021 28.5479C38.0639 29.1658 38.1257 29.4747 38.1874 30.0309C35.9629 31.4521 34.8507 32.379 32.8115 34.2945C32.7498 33.6148 32.7498 33.3058 32.7498 32.6261Z" fill="#027298"/>
<path d="M32.5027 34.7891C32.6881 34.6038 32.8117 34.4802 32.9971 34.2948C32.9971 33.4297 32.9971 32.9972 32.9971 32.1321C32.8117 32.3175 32.6881 32.3792 32.5027 32.5646C32.5027 33.4915 32.5027 33.924 32.5027 34.7891Z" fill="#192263"/>
<path d="M48.5068 34.7888C49.5573 34.4799 50.1134 34.3563 51.1639 34.1709C51.2875 34.4181 51.4111 34.5417 51.5346 34.8506C50.4224 35.036 49.8663 35.2214 48.754 35.5303C48.6922 35.1596 48.6304 35.036 48.5068 34.7888Z" fill="#FDCB5A"/>
<path d="M42.5131 38.5582C43.6254 38.002 44.1815 37.6931 45.2938 37.1987C45.3556 37.5077 45.4173 37.6931 45.5409 38.002C44.3669 38.4964 43.8108 38.8053 42.6985 39.4232C42.6367 39.1143 42.5749 38.9289 42.5131 38.5582Z" fill="#FE9D3E"/>
<path d="M43.4399 26.2002C44.1814 25.953 44.5522 25.8294 45.2937 25.644C45.4173 25.953 45.5409 26.0766 45.6645 26.3855C44.8612 26.5709 44.4904 26.6945 43.6871 26.9417C43.6253 26.6945 43.5635 26.5091 43.4399 26.2002Z" fill="#3DB19A"/>
<path d="M24.3462 19.4641C24.5934 19.6494 24.9023 19.773 25.1495 19.9584L21.6274 23.7895C21.442 23.7277 21.3184 23.6659 21.1948 23.6659C20.7623 23.5423 20.3915 23.4805 19.959 23.357L22.9868 18.3518C23.1104 18.599 23.2957 18.7844 23.5429 18.9697C23.8519 19.1551 24.099 19.3405 24.3462 19.4641Z" fill="#535353"/>
<path d="M32.1937 10.9989C32.3173 10.9989 32.5027 10.9989 32.6263 10.9989L32.0083 12.3583L31.9466 12.5437L27.8065 17.1163C27.374 16.9309 27.0032 16.7455 26.6324 16.4984C26.3235 16.313 26.0763 16.1276 25.7674 15.9422C25.4584 15.7569 25.1494 15.6333 24.7787 15.6333L28.9187 8.89795C29.3513 9.76304 30.031 10.381 30.9579 10.7517C31.3286 10.8753 31.6994 10.9989 32.1319 10.9989C32.0701 10.9989 32.1319 10.9989 32.1937 10.9989Z" fill="#535353"/>
<path d="M39.3617 15.2625C38.8674 15.695 38.3112 16.1276 37.6933 16.4983C37.2608 16.7455 36.7664 16.9927 36.2721 17.178L31.9467 12.6054V12.3583V10.9989C32.0084 10.9989 32.0084 10.9989 32.0702 10.9989C32.1938 10.9989 32.3792 10.9989 32.5028 10.9989C32.8117 10.9989 33.0589 10.8753 33.3679 10.8135C34.233 10.5045 34.9745 9.8248 35.407 8.95972L39.3617 15.2625Z" fill="#6D6D6D"/>
<path d="M44.9847 24.222C44.5521 24.2838 44.1814 24.4074 43.8106 24.4692C43.687 24.531 43.5017 24.531 43.3781 24.5928L38.9908 19.8966C39.2998 19.7112 39.6706 19.5259 39.9795 19.3405C40.4739 19.0315 40.9682 18.7226 41.4007 18.3518L44.9847 24.222Z" fill="#6D6D6D"/>
<path d="M39.3617 15.2627C38.8674 15.6953 38.3113 16.1278 37.6933 16.4986L33.4297 10.8755C34.2948 10.5665 35.0363 9.88682 35.4688 9.02173L39.3617 15.2627Z" fill="#535353"/>
<path d="M44.9846 24.222C44.5521 24.2838 44.1813 24.4074 43.8106 24.4692L39.9795 19.4022C40.4738 19.0933 40.9682 18.7843 41.4007 18.4136L44.9846 24.222Z" fill="#535353"/>
<path d="M23.6046 18.9697C23.8518 19.1551 24.0989 19.3405 24.4079 19.464L21.3183 23.6659C20.8858 23.5423 20.515 23.4805 20.0825 23.3569L23.1103 18.4136C23.1721 18.599 23.3574 18.8461 23.6046 18.9697Z" fill="#494949"/>
<path d="M30.8961 10.7517L26.5706 16.5601C26.2617 16.3748 26.0145 16.1894 25.7055 16.004C25.3966 15.8186 25.0876 15.695 24.7169 15.695L28.8569 8.95972C29.2895 9.76301 29.9692 10.4427 30.8961 10.7517Z" fill="#494949"/>
<path d="M1.79187 59.9381V53.5117H5.25222C6.1791 53.5117 6.73523 54.1296 6.73523 54.8711V56.5395C6.73523 57.3428 6.1791 57.8989 5.25222 57.8989H3.39846V59.9381H1.79187ZM3.46025 54.7476V56.7867H4.75788C4.94326 56.7867 5.06684 56.6631 5.06684 56.4777V55.0565C5.06684 54.8711 4.94326 54.7476 4.75788 54.7476H3.46025Z" fill="#5D5D5D"/>
<path d="M9.20694 59.9999C8.34186 59.9999 7.72394 59.382 7.72394 58.6405V54.8094C7.72394 54.0061 8.28007 53.45 9.20694 53.45H11.3697C12.2965 53.45 12.8527 54.0679 12.8527 54.8094V58.6405C12.8527 59.4438 12.2965 59.9999 11.3697 59.9999H9.20694ZM10.8753 58.8259C11.0607 58.8259 11.1843 58.7023 11.1843 58.5169V54.933C11.1843 54.7476 11.0607 54.624 10.8753 54.624H9.70128C9.5159 54.624 9.39232 54.7476 9.39232 54.933V58.5169C9.39232 58.7023 9.5159 58.8259 9.70128 58.8259H10.8753Z" fill="#5D5D5D"/>
<path d="M18.6611 58.7643V59.9383H15.5097C14.6447 59.9383 14.0267 59.3204 14.0267 58.5789V54.9332C14.0267 54.1299 14.5829 53.5737 15.5097 53.5737H18.6611V54.377L18.2904 54.8096H16.0041C15.8187 54.8096 15.6951 54.9332 15.6951 55.1185V58.5171C15.6951 58.7025 15.8187 58.826 16.0041 58.826H18.6611V58.7643Z" fill="#5D5D5D"/>
<path d="M20.9474 59.9999C20.0823 59.9999 19.4644 59.382 19.4644 58.6405V54.8094C19.4644 54.0061 20.0205 53.45 20.9474 53.45H23.1101C24.037 53.45 24.5931 54.0679 24.5931 54.8094V58.6405C24.5931 59.4438 24.037 59.9999 23.1101 59.9999H20.9474ZM22.6157 58.8259C22.8011 58.8259 22.9247 58.7023 22.9247 58.5169V54.933C22.9247 54.7476 22.8011 54.624 22.6157 54.624H21.4417C21.2563 54.624 21.1327 54.7476 21.1327 54.933V58.5169C21.1327 58.7023 21.2563 58.8259 21.4417 58.8259H22.6157Z" fill="#5D5D5D"/>
<path d="M25.9525 53.5117H30.5251V54.315L30.1544 54.7476H27.6209V55.9834H29.4747C30.3397 55.9834 30.9577 56.6013 30.9577 57.3428V58.5787C30.9577 59.3202 30.4015 59.9381 29.4747 59.9381H25.9525V53.5117ZM28.9185 58.764C29.1039 58.764 29.2275 58.6405 29.2275 58.4551V57.4664C29.2275 57.281 29.1039 57.1574 28.9185 57.1574H27.6209V58.764H28.9185Z" fill="#5D5D5D"/>
<path d="M32.1318 59.9381V53.5117H35.5921C36.519 53.5117 37.0751 54.1296 37.0751 54.8711V56.5395C37.0751 57.3428 36.519 57.8989 35.5921 57.8989H33.7384V59.9381H32.1318ZM33.8002 54.7476V56.7867H35.0978C35.2832 56.7867 35.4067 56.6631 35.4067 56.4777V55.0565C35.4067 54.8711 35.2832 54.7476 35.0978 54.7476H33.8002Z" fill="#5D5D5D"/>
<path d="M42.6981 58.7643V59.9383H39.5467C38.6816 59.9383 38.0637 59.3204 38.0637 58.5789V54.9332C38.0637 54.1299 38.6198 53.5737 39.5467 53.5737H42.6981V54.377L42.3273 54.8096H40.041C39.8556 54.8096 39.732 54.9332 39.732 55.1185V58.5171C39.732 58.7025 39.8556 58.826 40.041 58.826H42.6981V58.7643Z" fill="#5D5D5D"/>
<path d="M44.9845 59.9999C44.1194 59.9999 43.5015 59.382 43.5015 58.6405V54.8094C43.5015 54.0061 44.0577 53.45 44.9845 53.45H47.1473C48.0741 53.45 48.6303 54.0679 48.6303 54.8094V58.6405C48.6303 59.4438 48.0741 59.9999 47.1473 59.9999H44.9845ZM46.6529 58.8259C46.8383 58.8259 46.9619 58.7023 46.9619 58.5169V54.933C46.9619 54.7476 46.8383 54.624 46.6529 54.624H45.4789C45.2935 54.624 45.1699 54.7476 45.1699 54.933V58.5169C45.1699 58.7023 45.2935 58.8259 45.4789 58.8259H46.6529Z" fill="#5D5D5D"/>
<path d="M49.9278 59.9381V53.5117H51.5962V56.107H52.5231V54.8094C52.5231 54.0061 53.0792 53.45 54.0061 53.45H56.107C57.0339 53.45 57.59 54.0679 57.59 54.8094V58.6405C57.59 59.4438 57.0339 59.9999 56.107 59.9999H54.0061C53.141 59.9999 52.5231 59.382 52.5231 58.6405V57.3428H51.5344V59.9381H49.9278ZM55.6127 58.8259C55.798 58.8259 55.9216 58.7023 55.9216 58.5169V54.933C55.9216 54.7476 55.798 54.624 55.6127 54.624H54.5004C54.315 54.624 54.1914 54.7476 54.1914 54.933V58.5169C54.1914 58.7023 54.315 58.8259 54.5004 58.8259H55.6127Z" fill="#5D5D5D"/>
<path d="M58.764 54.7476L58.3933 54.315V53.5117H61.6065C62.4716 53.5117 63.0895 54.1296 63.0895 54.8711V55.6126C63.0895 56.0452 62.8423 56.2306 62.5952 56.4159C62.4716 56.4777 62.2862 56.5395 62.1008 56.6013V56.6631C62.2862 56.7249 62.4716 56.7249 62.5952 56.8485C62.8423 56.9721 63.1513 57.2192 63.1513 57.6518V58.5787C63.1513 59.382 62.5952 59.9381 61.6683 59.9381H58.2697V58.764H61.1739C61.3593 58.764 61.4829 58.6405 61.4829 58.4551V57.6518C61.4829 57.4664 61.3593 57.3428 61.1739 57.3428H59.5056V56.1688H61.1121C61.2975 56.1688 61.4211 56.0452 61.4211 55.8598V55.0565C61.4211 54.8711 61.2975 54.7476 61.1121 54.7476H58.764Z" fill="#5D5D5D"/>
<path d="M56.2925 35.3449C55.9217 35.3449 55.6128 35.3449 55.242 35.3449L63.5221 45.417C56.1689 41.2152 48.4449 40.3501 40.7209 43.0689C38.1256 43.934 35.5304 45.2316 32.9969 46.9618V46.1585C32.8733 46.2821 32.688 46.4057 32.5644 46.5911V32.1318C33.4912 31.2049 34.4181 30.4016 35.345 29.6601C34.4181 30.1544 33.4912 30.6487 32.5644 31.2667C32.5644 31.2667 32.5026 31.2667 32.5026 31.2049C28.7951 27.6827 25.0875 25.3346 21.5036 24.2224C18.6612 23.3573 16.1895 23.4191 13.5324 24.0988L13.3471 24.1606L0.370752 36.8279C0.370752 36.8279 3.46035 36.21 7.90937 36.3954L0 46.6529C0 46.6529 0.061792 46.6529 0.123584 46.5911C1.11226 46.0967 8.15654 42.76 15.8187 42.6982C21.3182 42.6982 26.7559 45.1699 32.07 48.8774L32.4408 49.1245L32.5026 49.0627L32.5644 49.001L32.8733 48.8156C34.171 47.8887 35.5304 47.0236 36.8898 46.2821C38.5582 45.3552 40.2884 44.5519 41.9567 43.934C42.6365 43.6868 43.3162 43.5015 43.9959 43.3161C44.6756 43.1307 45.3553 43.0071 46.035 42.8836C47.0855 42.6982 48.0741 42.6364 49.1246 42.6364C56.2307 42.6982 62.8424 45.5406 64.5726 46.3439C64.8816 46.4675 65.0051 46.5293 65.0051 46.5293L56.2925 35.3449ZM1.23584 45.6642L7.724 37.5077L8.52729 36.4572C10.8136 36.6426 13.4706 37.0133 16.1895 37.8166C19.1555 38.7435 22.1215 40.4119 25.0875 42.6364C25.7055 43.1307 26.3234 43.6251 26.9413 44.1194C18.2904 40.2265 9.39238 40.9062 1.23584 45.6642ZM32.0082 46.8382C21.9361 37.0133 11.2461 33.6765 1.5448 36.21L13.5942 24.8403C19.5881 23.2955 26.0144 25.7672 32.3172 31.8228L32.0082 46.8382Z" fill="#5D5D5D"/>
<path d="M32.1936 10.3192C33.8317 10.3192 35.1596 8.99131 35.1596 7.35322C35.1596 5.71514 33.8317 4.38721 32.1936 4.38721C30.5555 4.38721 29.2276 5.71514 29.2276 7.35322C29.2276 8.99131 30.5555 10.3192 32.1936 10.3192Z" fill="#535353"/>
<path d="M39.238 18.6613C39.8864 18.6613 40.412 18.1357 40.412 17.4873C40.412 16.8389 39.8864 16.3132 39.238 16.3132C38.5895 16.3132 38.0639 16.8389 38.0639 17.4873C38.0639 18.1357 38.5895 18.6613 39.238 18.6613Z" fill="#535353"/>
<path d="M39.238 19.1561C38.929 19.1561 38.6201 19.0325 38.3111 18.9089C37.1989 19.4651 35.963 19.9594 34.7272 20.2066C31.6376 20.8245 28.548 20.3919 25.8909 18.9707C25.6438 19.1561 25.3348 19.2797 24.9641 19.2797C27.8683 20.9481 31.3286 21.6278 34.8508 20.8863C36.4574 20.5773 38.0022 19.9594 39.2998 19.1561C39.2998 19.1561 39.2998 19.1561 39.238 19.1561Z" fill="#535353"/>
<path d="M26.5706 17.6113C26.5706 17.7349 26.5706 17.7967 26.5706 17.9203C29.0423 19.1561 31.7611 19.5269 34.5417 18.9708C35.654 18.7236 36.7045 18.3528 37.6931 17.8585C37.6931 17.7349 37.6313 17.6113 37.6313 17.4877C37.6313 17.3642 37.6313 17.1788 37.6931 17.0552C36.7045 17.6113 35.5922 18.0439 34.4182 18.2292C31.6375 18.7854 28.8569 18.291 26.5088 16.9934C26.5088 17.2406 26.5706 17.426 26.5706 17.6113Z" fill="#535353"/>
<path d="M43.6253 12.7298C43.0073 12.359 42.204 12.5444 41.8333 13.1623C41.2154 14.151 40.3503 15.0779 39.4234 15.8194C39.7324 15.8812 39.9795 15.943 40.1649 16.1283C41.03 15.3868 41.7715 14.5217 42.3894 13.5331C42.513 13.4095 42.6366 13.2859 42.822 13.2241C42.9455 13.2241 43.0691 13.2241 43.2545 13.2859C43.4399 13.4095 43.5017 13.5331 43.5635 13.7185C43.6253 13.9038 43.5635 14.0274 43.5017 14.151C42.7602 15.2632 41.8951 16.3137 40.9064 17.117C40.9064 17.2406 40.9682 17.3024 40.9682 17.426C40.9682 17.6731 40.9064 17.9203 40.7828 18.1675C42.0805 17.1788 43.2545 15.943 44.1196 14.5217C44.4903 13.9656 44.2432 13.1623 43.6253 12.7298Z" fill="#535353"/>
<path d="M24.9022 18.7851C25.5506 18.7851 26.0762 18.2595 26.0762 17.6111C26.0762 16.9627 25.5506 16.437 24.9022 16.437C24.2538 16.437 23.7281 16.9627 23.7281 17.6111C23.7281 18.2595 24.2538 18.7851 24.9022 18.7851Z" fill="#535353"/>
<path d="M25.0875 42.698C20.0824 39.9174 14.7065 37.6929 7.724 37.5075L8.52729 36.457C10.8136 36.6424 13.4707 37.0132 16.1895 37.8165C19.1555 38.8051 22.1215 40.4735 25.0875 42.698Z" fill="#D1D3D4"/>
<path d="M32.4408 49.1866C23.6664 46.097 14.3358 44.1197 0.0618286 46.6531H0.123621C1.11229 46.1588 8.15658 42.822 15.8188 42.7603C21.3183 42.7603 26.756 45.2319 32.0701 48.9395L32.4408 49.1866Z" fill="#D1D3D4"/>
<path d="M64.7581 46.6531C50.5459 43.9343 41.3389 46.0352 32.5645 49.1248L32.8734 48.9395C34.171 48.0126 35.5305 47.1475 36.8899 46.406C38.5583 45.4791 40.2884 44.6758 41.9568 44.0579C42.6365 43.8107 43.3163 43.6253 43.996 43.44C44.6757 43.2546 45.3554 43.131 46.0351 43.0074C47.0856 42.822 48.0742 42.7603 49.1247 42.7603C56.2308 42.822 62.8425 45.6645 64.5727 46.4678L64.7581 46.6531Z" fill="#D1D3D4"/>
<path d="M32.7497 0.556128V3.70752C32.5644 3.70752 32.379 3.64573 32.1936 3.64573C32.0082 3.64573 31.8847 3.64573 31.6993 3.70752V0.556128C31.6993 0.247168 31.9464 0 32.2554 0C32.5026 0 32.7497 0.247168 32.7497 0.556128Z" fill="#535353"/>
</svg>
