<svg width="100" height="49" viewBox="0 0 100 49" fill="none" xmlns="http://www.w3.org/2000/svg">
<path d="M75.3694 37.8304C77.0558 37.8304 78.3675 38.3093 79.2836 39.267C80.1997 40.2247 80.6578 41.5989 80.6578 43.3478C80.6578 45.1175 80.1997 46.4916 79.2836 47.4494C78.3675 48.4071 77.0558 48.886 75.3694 48.886H72.0173V37.8096H75.3694V37.8304ZM72.4129 48.532H75.3486C76.9309 48.532 78.1385 48.0948 78.9921 47.1995C79.8458 46.3043 80.2622 45.0342 80.2622 43.3686C80.2622 41.703 79.8458 40.4329 78.9921 39.5377C78.1385 38.6424 76.9309 38.2052 75.3486 38.2052H72.4129V48.532Z" fill="white"/>
<path d="M89.4441 45.055H84.3014L82.844 48.9067H82.4276L86.675 37.8303H87.0705L91.3179 48.9067H90.8807L89.4441 45.055ZM84.4264 44.701H89.2983L86.8832 38.3508H86.8415L84.4264 44.701Z" fill="white"/>
<path d="M95.5864 48.9069V44.0766L91.5264 37.8513H91.9845L95.753 43.6602H95.7738L99.5422 37.8513H100L95.9612 44.0766V48.9069H95.5864Z" fill="white"/>
<path d="M42.057 33.5623L26.067 15.5944L38.2053 15.6152C38.2053 15.6152 38.2053 15.6152 38.2261 15.6152C39.746 15.6152 41.1826 15.0114 42.2652 13.9288C43.3479 12.8461 43.9517 11.4095 43.9517 9.86882C43.9517 6.70414 41.3699 4.12242 38.2261 4.12242H27.108L14.0537 33.5207L0 0.0416431H4.28898L14.1578 23.5686L24.5263 0.187381H38.2261C43.5561 0.187381 47.9075 4.53883 47.9075 9.88964C47.9075 12.4922 46.8873 14.9282 45.0551 16.7603C43.2229 18.5925 40.8078 19.5919 38.2261 19.5919H38.2053H34.9156L47.387 33.5831L42.057 33.5623ZM68.6654 3.9975H88.2156C91.4011 3.9975 93.9829 6.57921 93.9829 9.76472C93.9829 11.3054 93.3791 12.7628 92.2964 13.8455C91.2138 14.9282 89.7563 15.5319 88.2365 15.5319C88.2365 15.5319 88.2365 15.5319 88.2156 15.5319L76.0358 15.4903L92.109 33.5415H97.4182L84.9052 19.4878H88.2156H88.2365C90.839 19.4878 93.275 18.4884 95.1072 16.6354C96.9602 14.8032 97.9595 12.3464 97.9595 9.7439C97.9595 4.37226 93.5873 0 88.2365 0H66.7291L68.6654 3.9975ZM76.2231 33.5623L61.3574 0.0416431L47.3037 33.5623H51.5927L61.4615 10.0354L71.8925 33.5623H76.2231Z" fill="url(#paint0_linear)"/>
<defs>
<linearGradient id="paint0_linear" x1="-0.65185" y1="-1.44182e-06" x2="27.0246" y2="53.2388" gradientUnits="userSpaceOnUse">
<stop stop-color="#FF3434"/>
<stop offset="1" stop-color="#FF006B"/>
</linearGradient>
</defs>
</svg>
