<svg width="60" height="60" viewBox="0 0 60 60" fill="none" xmlns="http://www.w3.org/2000/svg">
<path d="M29.6278 9.04443C17.9032 9.04443 8.41193 18.5357 8.41193 30.2603C8.41193 41.9848 17.9032 51.4761 29.6278 51.4761C41.3523 51.4761 50.8436 41.9848 50.8436 30.2603C50.8064 18.5357 41.3151 9.04443 29.6278 9.04443ZM50.2481 31.6374C50.062 32.1213 49.8759 32.6052 49.6153 33.0891C49.057 30.8558 48.2381 28.6598 47.1587 26.5754C47.9776 25.5332 48.5731 24.3422 48.9826 23.0767C49.8386 25.3843 50.2853 27.8037 50.2853 30.2603C50.2853 30.7069 50.2481 31.1536 50.2481 31.6374ZM49.7642 33.6846C49.8759 33.4613 49.9875 33.2752 50.0992 33.0518C50.062 33.4613 49.9875 33.8707 49.9131 34.2801C49.8386 34.0568 49.8014 33.8707 49.7642 33.6846ZM8.93302 30.2603C8.93302 29.9253 8.93302 29.6275 8.97024 29.2925C9.30522 30.4464 9.90076 31.6002 10.3846 31.898C10.0869 31.7863 9.64021 31.4513 9.60299 31.7491C9.60299 32.1958 9.78909 32.6424 10.1241 32.9774C10.0496 33.2007 10.0124 33.4613 9.93798 33.6846C9.52855 33.0518 9.23078 32.3446 8.97024 31.6374C8.97024 31.1536 8.93302 30.7069 8.93302 30.2603ZM24.5657 15.6325C24.0074 15.6325 22.4814 16.8236 21.3648 18.8335C21.402 18.5357 21.3647 18.2752 21.1414 18.3124C20.5831 18.4241 19.9131 19.3174 19.4665 20.2107C19.1315 19.9129 18.7965 19.6151 18.4988 19.3174C20.2853 17.6797 22.2953 16.2653 24.4541 15.1486C25.0496 15.6697 25.7568 16.0419 26.5384 16.2653C25.2729 18.1635 24.1935 20.2107 23.3002 22.3322C23.0769 22.2578 22.8536 22.1461 22.6303 22.0717C23.0025 18.7591 24.7891 16.5258 24.7891 15.8931C24.7891 15.6325 24.7518 15.6325 24.5657 15.6325ZM34.9503 14.9625C37.1464 16.0419 39.1563 17.4191 40.9801 19.0568C39.6029 20.5829 37.8163 21.7367 35.8808 22.3695C34.9876 20.2479 33.9081 18.2007 32.6426 16.228C33.4987 16.0047 34.2804 15.5581 34.9503 14.9625ZM32.3821 15.8931C31.7121 14.8881 30.9677 13.9204 30.1861 13.0271C31.6749 13.5109 33.1265 14.0692 34.5409 14.7764C33.9454 15.2975 33.201 15.707 32.3821 15.8931ZM34.8014 14.5159C33.3871 13.8459 31.9354 13.2504 30.4466 12.7665C31.6749 12.3943 32.9404 12.0965 34.2431 11.8732C34.8759 12.3199 35.2109 12.8782 35.2109 13.4737C35.2109 13.8459 35.062 14.2181 34.8014 14.5159ZM29.8511 12.5804C30.4094 11.9849 31.0421 11.4266 31.6749 10.8683C32.4193 11.0171 33.1265 11.2405 33.7965 11.6127C32.4565 11.8732 31.1538 12.171 29.8511 12.5804ZM29.7394 12.2082V10.6821C30.2233 10.6821 30.7444 10.7194 31.2283 10.7938C30.7072 11.2405 30.2233 11.6871 29.7394 12.2082ZM32.0471 16.0047C31.3027 16.1908 30.5211 16.2653 29.7766 16.3025V13.1015C30.5583 13.9948 31.3399 14.9625 32.0471 16.0047ZM32.2704 16.3397C33.5359 18.2752 34.6153 20.3223 35.5459 22.4811C34.7642 22.7417 33.9826 22.9278 33.201 23.0767C33.201 22.9278 33.1637 22.7789 33.1265 22.6672C32.9776 22.8161 32.866 22.965 32.7543 23.1511C32.4938 23.1883 32.2332 23.2255 31.9727 23.2628L31.861 23.0767C31.8238 22.295 31.4144 21.5506 30.7444 21.1412C30.7072 21.5506 30.8188 21.96 31.0049 22.3322C31.191 22.6672 31.4144 22.9278 31.7121 23.1511C31.7121 23.1883 31.7493 23.2255 31.7866 23.2628L31.3771 23.3C31.0794 23.0767 30.7072 22.965 30.335 22.9278C30.4094 23.0767 30.4838 23.2255 30.5583 23.3372C30.2977 23.3372 30.0372 23.3744 29.7394 23.3744V16.6747C30.5955 16.6375 31.4516 16.5258 32.2704 16.3397ZM32.4565 24.5655C32.3449 24.2305 32.2332 23.9327 32.0843 23.635L32.531 23.5605C32.531 23.5978 32.4938 23.6722 32.4938 23.7094C32.4565 24.0072 32.4193 24.2677 32.4565 24.5655ZM32.1216 24.0816C32.0471 23.9327 31.9354 23.7839 31.7866 23.6722H31.9354C32.0099 23.7839 32.0843 23.9327 32.1216 24.0816ZM30.856 23.7466C30.9305 23.8211 31.0049 23.8955 31.0794 23.9327C31.4144 24.1933 31.8238 24.3422 32.2332 24.3794C32.4193 24.9005 32.531 25.4588 32.5682 25.9799C32.3821 25.6449 32.1588 25.3843 31.861 25.161C31.526 24.9377 31.1538 24.7888 30.7444 24.7516C30.8933 25.1238 31.191 25.4216 31.526 25.6821C31.861 25.9054 32.196 26.0543 32.6054 26.0915C32.6799 26.7243 32.6426 27.3943 32.531 28.027C32.4565 27.7293 32.2704 27.4315 32.0843 27.1709C31.8238 26.836 31.4516 26.5382 31.0422 26.3893C31.1166 26.836 31.3027 27.2454 31.5632 27.5804C31.8238 27.9154 32.1216 28.1387 32.4938 28.2876C32.4565 28.5109 32.3821 28.8459 32.2704 29.2553C31.861 29.1809 31.4516 29.032 31.0794 28.8459C30.6327 28.4365 30.2977 27.8781 29.7394 27.5432V23.7466C30.1116 23.7466 30.4838 23.7466 30.856 23.7466ZM28.7345 28.5109C28.7345 28.3248 28.8833 28.1759 29.0694 28.1759C29.2556 28.1759 29.4044 28.3248 29.4044 28.5109C29.4044 28.697 29.2556 28.8459 29.0694 28.8459C28.8833 28.8459 28.7345 28.697 28.7345 28.5109ZM28.4739 27.2454C26.129 27.2454 26.1662 30.2975 24.4541 31.4513C25.1613 28.2131 23.2258 27.6176 22.6675 24.826C22.928 24.1561 23.1886 23.4861 23.4491 22.8161C25.3474 23.4489 27.3573 23.7839 29.3672 23.7839V27.4315C29.1067 27.2826 28.8089 27.2454 28.4739 27.2454ZM26.7618 15.8558C26.0546 15.6697 25.4218 15.3347 24.8263 14.8881C26.0918 14.2553 27.3945 13.7343 28.6972 13.2876C28.0273 14.1065 27.3573 14.9625 26.7618 15.8558ZM29.3672 13.1015L29.4044 16.3025C28.6228 16.3025 27.8784 16.1908 27.0968 16.0047C27.8039 14.9625 28.5484 13.9948 29.3672 13.1015ZM26.8734 16.3025C27.6923 16.5258 28.5484 16.6375 29.4044 16.6375V23.3744C27.4317 23.3744 25.4963 23.0394 23.6352 22.4439C24.5285 20.3223 25.6079 18.238 26.8734 16.3025ZM29.4044 12.2082C28.9206 11.7243 28.4367 11.2405 27.9156 10.7938C28.3995 10.7194 28.9206 10.6821 29.4044 10.6821V12.2082ZM29.0322 12.3571C27.9156 12.0593 26.7618 11.7988 25.5335 11.5754C26.129 11.2777 26.799 11.0544 27.469 10.9055C28.0273 11.3521 28.5484 11.836 29.0322 12.3571ZM29.1811 12.7665C27.5806 13.2876 26.0173 13.9204 24.5657 14.6648C24.2308 14.367 24.0446 13.9204 24.0074 13.4737C24.0074 12.841 24.4169 12.2826 25.0868 11.836C26.464 12.0593 27.8412 12.3571 29.1811 12.7665ZM23.1513 22.7045C22.9652 23.1883 22.7791 23.635 22.593 24.1188C22.5558 23.8583 22.5558 23.5978 22.5558 23.3372C22.5558 23.0394 22.5558 22.7789 22.593 22.4811C22.7791 22.5556 22.9652 22.63 23.1513 22.7045ZM10.3846 33.2752C10.9057 33.7962 11.5012 34.2429 12.134 34.5779C11.7618 34.4662 11.5385 34.3546 11.5385 34.6151C11.4268 35.434 13.995 36.3645 14.7022 36.5506C14.3672 36.5506 14.1439 36.4761 14.1439 36.6622C14.1439 37.2206 16.4516 38.0766 18.536 37.7789C17.866 38.4116 17.0844 38.8955 16.2283 39.2677C13.6228 37.8905 11.5385 36.1411 10.1613 34.0568C10.273 33.8335 10.3474 33.5357 10.3846 33.2752ZM29.2928 35.9923C29.2928 35.1362 29.2183 34.3173 29.1439 33.4985H29.4044V42.2454C28.2506 42.2454 27.0968 42.1709 26.0173 42.0592C28.0273 40.6821 29.2556 38.4488 29.2928 35.9923ZM29.1067 33.0891C29.1067 32.9774 29.1067 32.8285 29.1067 32.7168C29.1067 32.3074 29.2183 31.898 29.4044 31.4886V33.1263L29.1067 33.0891ZM30.9677 29.8881C31.3771 29.7392 31.7866 29.6275 32.196 29.5531C32.0471 30.1114 31.861 30.6697 31.6377 31.1908C31.6377 31.1908 31.6377 31.228 31.7493 31.2652C31.861 31.3025 31.8982 31.228 31.8982 31.228C32.0099 31.0047 32.1216 30.7441 32.196 30.4836C32.5682 30.4464 32.9776 30.3347 33.2754 30.1114C33.6476 29.8881 33.9826 29.5903 34.2059 29.2181C33.4615 29.1809 32.7543 29.5159 32.2704 30.1114C32.4565 29.4786 32.5682 28.9203 32.6054 28.8459C33.0148 28.7714 33.3871 28.5853 33.6848 28.3248C34.0198 28.027 34.2431 27.692 34.392 27.2826C33.9826 27.3571 33.5732 27.5432 33.2382 27.8409C32.9776 28.027 32.7915 28.2876 32.6426 28.5853C32.7543 27.9154 32.8287 27.2082 32.7915 26.5382C33.1637 26.3521 33.4615 26.0915 33.6848 25.7193C33.9081 25.3471 34.057 24.9377 34.0943 24.5283C33.722 24.7144 33.3871 25.0121 33.1265 25.3471C32.9776 25.6077 32.866 25.9054 32.7915 26.2032C32.7543 25.7566 32.6799 25.3099 32.5682 24.8633C32.8287 24.5655 33.0149 24.2305 33.1265 23.8583C33.1637 23.7466 33.1637 23.5978 33.1637 23.4861C34.0198 23.3372 34.8387 23.1139 35.6575 22.8533C36.8486 25.7566 37.7791 28.7342 38.5235 31.7863C35.6947 32.6796 32.7171 33.1263 29.7394 33.1263V31.0047C30.0744 30.558 30.4838 30.1858 30.9677 29.8881ZM29.7394 33.4985C32.7543 33.4985 35.732 33.0518 38.598 32.1585C39.2307 34.9129 39.7518 37.7044 40.0868 40.5332C36.7741 41.687 33.2754 42.2826 29.7394 42.2454V33.4985ZM35.9925 22.7045C38.0024 22.0345 39.8263 20.8434 41.2406 19.2801C43.1017 20.9923 44.7394 23.0022 46.0421 25.161C46.3027 25.6077 46.526 26.0171 46.7493 26.4638C44.9627 28.697 42.2456 30.4836 38.8585 31.6374C38.1141 28.5853 37.1836 25.6077 35.9925 22.7045ZM41.1662 18.7591C39.3424 17.1213 37.3325 15.7442 35.1364 14.6648C35.397 14.3298 35.5459 13.8831 35.5831 13.4737C35.5459 12.8037 35.2481 12.2082 34.727 11.7988C35.7692 11.6127 36.8858 11.4638 38.0397 11.3893C39.7518 12.171 41.3523 13.1759 42.8039 14.367C42.7667 15.9675 42.1712 17.4935 41.1662 18.7591ZM34.3548 11.501C33.6476 11.0544 32.866 10.7194 32.0471 10.5333C32.3449 10.3099 32.6799 10.0494 32.9776 9.82607C34.5037 10.0866 35.9553 10.496 37.3697 11.0544C36.3275 11.2032 35.3225 11.3521 34.3548 11.501ZM31.6005 10.4588C30.9677 10.3472 30.3722 10.2727 29.7394 10.2727V9.56552C30.6699 9.56552 31.5632 9.63997 32.4938 9.75163C32.196 10.0122 31.8982 10.2355 31.6005 10.4588ZM29.4044 10.2727C28.7717 10.2727 28.1389 10.3472 27.5434 10.4588C27.2456 10.2355 26.9479 10.0122 26.6501 9.78885C27.5434 9.63997 28.4739 9.60275 29.4044 9.56552V10.2727ZM27.0968 10.5705C26.3151 10.7194 25.6079 11.0171 24.9379 11.4638C23.9702 11.3149 22.9652 11.166 21.9231 11.0916C23.3002 10.5333 24.7146 10.1238 26.1662 9.90051C26.5012 10.0866 26.799 10.3099 27.0968 10.5705ZM24.5657 11.7243C24.0074 12.1338 23.6724 12.7665 23.6352 13.4737C23.6352 13.9948 23.8585 14.4787 24.1935 14.8509C22.0347 15.9675 20.0248 17.3819 18.2382 19.0196C17.0844 17.7169 16.4516 16.0792 16.3772 14.367C17.8288 13.1387 19.4665 12.1338 21.2159 11.3521C22.4069 11.4266 23.5236 11.5754 24.5657 11.7243ZM19.2804 20.5457C19.1687 20.8434 19.0571 21.1412 19.0198 21.4389C18.9454 21.3273 18.9454 20.8806 18.6849 20.9923C17.9777 21.2156 17.5682 23.8211 18.0149 24.9749C17.9404 24.7516 17.7171 24.5655 17.4566 24.7144C17.196 25.0494 17.0471 25.4588 17.0844 25.8682C17.0844 28.1387 18.0149 28.9575 18.0149 28.9575C16.7866 28.6226 15.67 27.9154 14.8883 26.9104C14.4417 26.3149 14.0323 25.6821 13.7345 25.0121C14.9628 23.0022 16.4516 21.1784 18.1638 19.5407C18.536 19.9129 18.9082 20.2479 19.2804 20.5457ZM9.82631 34.2429C9.75187 34.6895 9.67743 35.0617 9.60299 35.434C9.41689 34.6523 9.23078 33.8707 9.11912 33.0518C9.34245 33.4613 9.56577 33.8707 9.82631 34.2429ZM10.0869 34.6523C11.5757 36.6622 13.5112 38.3 15.7072 39.4538C15 39.6027 14.2556 39.6771 13.5112 39.6399C12.6179 39.6027 11.7246 39.3794 10.8685 39.0071C10.4591 38.1138 10.0869 37.1833 9.78909 36.2528C9.90076 35.8062 9.9752 35.2479 10.0869 34.6523ZM20.0992 43.7714C21.9603 43.8086 23.8213 43.362 25.459 42.4315C26.7618 42.5803 28.1017 42.6548 29.4044 42.692V50.9178C25.4963 50.8806 21.6997 49.7267 18.4243 47.6051C18.4615 46.6746 18.536 45.2602 18.7221 43.5853C19.1687 43.697 19.6154 43.7342 20.0992 43.7714ZM29.7394 42.6548C33.2754 42.692 36.8114 42.0965 40.1612 40.9426C40.5334 43.8831 40.6823 46.2652 40.7195 47.6424C37.4441 49.7267 33.6476 50.8806 29.7394 50.8806V42.6548ZM38.933 32.0469C42.3573 30.893 45.1116 29.1064 46.9354 26.8732C48.0148 28.9948 48.7965 31.228 49.3548 33.4985C47.6426 36.4389 44.5161 38.8583 40.4218 40.3843C40.0868 37.5928 39.5657 34.8012 38.933 32.0469ZM48.7592 22.4439C48.4242 23.7839 47.8287 25.0494 46.9726 26.166C46.7493 25.7938 46.5632 25.3843 46.3399 25.0121C44.9999 22.7789 43.3622 20.769 41.464 19.0196C42.4689 17.7913 43.0645 16.2653 43.1761 14.702C45.6327 16.7864 47.5309 19.4662 48.7592 22.4439ZM16.0422 14.6648C16.1538 16.3769 16.861 17.9774 17.9777 19.2801C16.3027 20.8806 14.8511 22.6672 13.6228 24.6027C12.7295 22.5556 12.3201 20.099 12.804 18.238C13.7345 16.9352 14.8139 15.7442 16.0422 14.6648ZM13.3623 43.027C14.1811 42.9525 14.9628 42.9898 15.7816 43.0642C16.5261 43.1387 17.4566 43.3992 18.3499 43.5481C18.201 45.1486 18.1265 46.4513 18.0893 47.419C16.3027 46.1908 14.7022 44.7019 13.3623 43.027ZM41.0545 47.4563C40.9801 46.0047 40.8312 43.697 40.4962 40.831C44.5161 39.3421 47.6798 36.9972 49.5036 34.094C49.5781 34.4662 49.6525 34.8012 49.6898 35.099C48.4615 40.161 45.3721 44.553 41.0545 47.4563Z" fill="white"/>
<path d="M0.484024 23.114C0.558466 22.6301 0.856232 22.1835 1.26566 21.8857C1.78675 21.6624 2.34506 21.6624 2.86615 21.8113C3.16392 21.8857 3.42446 21.9602 3.68501 22.109C3.90833 22.2207 4.09444 22.3696 4.28054 22.5557C4.42943 22.7418 4.54109 22.9651 4.57831 23.1885C4.61553 23.4862 4.61553 23.784 4.54109 24.0817L4.42943 24.4912L6.96044 25.0867L6.69989 26.0917L0.111816 24.5656L0.484024 23.114ZM1.30288 23.7468L3.42446 24.2306L3.49891 23.8584C3.57335 23.5979 3.53613 23.3373 3.38724 23.1512C3.16392 22.9651 2.90337 22.8162 2.60561 22.779C2.34506 22.7046 2.08452 22.7046 1.78675 22.779C1.56343 22.8907 1.37732 23.114 1.3401 23.3746L1.30288 23.7468Z" fill="white"/>
<path d="M7.33241 18.685C7.77906 18.8339 8.15127 19.1689 8.41182 19.5783C8.59792 20.025 8.5607 20.5088 8.33737 20.881C8.18849 21.3277 7.89073 21.6627 7.4813 21.8488C7.03465 21.9605 6.588 21.9232 6.17857 21.6999L3.05203 20.36C2.8287 20.2483 2.60538 20.1366 2.41927 19.9878C2.23317 19.8761 2.08429 19.7272 1.97262 19.5411C1.89818 19.355 1.86096 19.1317 1.86096 18.9456C1.86096 18.685 1.9354 18.4245 2.04707 18.2012C2.15873 17.9406 2.27039 17.7173 2.45649 17.5312C2.60538 17.3823 2.79148 17.2706 2.97758 17.1962C3.16369 17.159 3.38701 17.1218 3.61034 17.159C3.87088 17.1962 4.09421 17.2706 4.31753 17.3823L7.33241 18.685ZM3.79644 18.3128C3.64756 18.2384 3.46145 18.2384 3.31257 18.2384C3.12647 18.2756 2.97758 18.3873 2.94036 18.5734C2.90314 18.685 2.86592 18.7595 2.90314 18.8711C2.94036 18.9456 2.97758 19.0572 3.01481 19.1317C3.08925 19.2061 3.16369 19.2806 3.23813 19.3178C3.31257 19.355 3.38701 19.3922 3.49868 19.4294L6.62522 20.7694C6.7741 20.8438 6.96021 20.8438 7.10909 20.8438C7.40686 20.7322 7.59296 20.4344 7.4813 20.0994C7.4813 20.0622 7.44408 20.025 7.44408 19.9878C7.33241 19.8389 7.18353 19.7272 6.99743 19.6528L3.79644 18.3128Z" fill="white"/>
<path d="M4.50369 13.5855C4.61535 13.3622 4.80145 13.1761 4.98756 13.0272C5.13644 12.9155 5.32255 12.8411 5.50865 12.7666C5.69475 12.7294 5.88086 12.7294 6.06696 12.8039C6.25306 12.8783 6.47639 12.9527 6.62527 13.0644L6.32751 14.0694C6.1414 13.9577 5.9553 13.8833 5.73197 13.846C5.54587 13.846 5.39699 13.9205 5.28532 14.1066C5.17366 14.2555 5.17366 14.4788 5.2481 14.6649C5.28532 14.7393 5.35977 14.8138 5.43421 14.8882C5.50865 14.9627 5.58309 14.9999 5.65753 15.0743L8.52353 16.9354C8.56075 16.9726 8.63519 17.0098 8.70963 17.047C8.78408 17.0842 8.85852 17.0842 8.93296 17.0842C9.0074 17.0842 9.08184 17.0842 9.15628 17.047C9.23073 17.0098 9.30517 16.9354 9.37961 16.8609C9.60293 16.5259 9.45405 16.2282 9.0074 15.9304C9.11906 15.8187 9.23073 15.6699 9.37961 15.521L9.7146 15.1115C10.0868 15.3349 10.3846 15.7071 10.4962 16.1165C10.6079 16.5632 10.4962 17.0098 10.2357 17.3448C10.0124 17.7542 9.64015 18.052 9.23073 18.1636C8.78408 18.2009 8.33743 18.0892 7.96522 17.8287L5.13644 16.0048C4.95034 15.856 4.76423 15.7071 4.57813 15.5582C4.42925 15.4093 4.31758 15.2232 4.24314 14.9999C4.1687 14.7766 4.1687 14.5905 4.1687 14.3671C4.24314 14.0321 4.35481 13.8088 4.50369 13.5855Z" fill="white"/>
<path d="M7.55585 9.67732C7.70473 9.49122 7.89083 9.34233 8.11416 9.23067C8.30026 9.11901 8.48636 9.08179 8.67247 9.08179C8.85857 9.08179 9.04468 9.11901 9.23078 9.19345C9.41688 9.26789 9.60299 9.41677 9.75187 9.56566L9.268 10.4962C9.11912 10.3473 8.93301 10.2356 8.74691 10.1984C8.56081 10.1612 8.3747 10.2356 8.26304 10.3845C8.1886 10.459 8.15138 10.5706 8.11416 10.6451C8.11416 10.7195 8.11416 10.8312 8.15138 10.9056C8.1886 10.98 8.22582 11.0917 8.30026 11.1289C8.33748 11.2034 8.41192 11.2778 8.48636 11.315L11.0174 13.6227C11.0546 13.6599 11.129 13.6972 11.2035 13.7344C11.2779 13.7716 11.3524 13.8088 11.4268 13.8088C11.5012 13.8088 11.5757 13.8088 11.6501 13.8088C11.7618 13.7716 11.8362 13.7344 11.8735 13.6599C12.134 13.3622 12.0596 13.0272 11.6501 12.655C11.799 12.5433 11.9479 12.4317 12.0596 12.32L12.469 11.985C12.804 12.2828 13.0273 12.655 13.0645 13.1016C13.1017 13.5483 12.9156 13.9577 12.5806 14.2927C12.3201 14.6649 11.8735 14.8882 11.4268 14.9254C10.9802 14.8882 10.5707 14.7021 10.2357 14.3671L7.74195 12.0967C7.55585 11.9478 7.40696 11.7617 7.25808 11.5384C7.14642 11.3523 7.03475 11.1661 6.99753 10.9428C6.96031 10.7195 6.99753 10.4962 7.03475 10.3101C7.22086 10.0867 7.36974 9.86342 7.55585 9.67732Z" fill="white"/>
<path d="M15.5955 9.30545C15.9305 9.67766 16.0793 10.1243 16.1166 10.6082C16.0421 11.0548 15.7816 11.4643 15.4094 11.7248C15.0744 12.0226 14.6277 12.1714 14.1811 12.1342C13.7344 12.0226 13.3622 11.762 13.1017 11.3898L11.0173 8.70992C10.8684 8.52381 10.7568 8.30049 10.6451 8.07716C10.5707 7.89106 10.5334 7.66773 10.5334 7.44441C10.5334 7.22109 10.6079 7.03498 10.7196 6.84888C10.8684 6.62555 11.0173 6.43945 11.2406 6.29057C11.4267 6.14168 11.6873 5.9928 11.9478 5.91836C12.1339 5.84392 12.3573 5.84392 12.5434 5.88114C12.7295 5.91836 12.9528 6.03002 13.1017 6.14168C13.2878 6.29057 13.4739 6.47667 13.6228 6.69999L15.5955 9.30545ZM12.7295 7.29553C12.6178 7.14664 12.4689 7.03498 12.32 6.96054C12.1339 6.8861 11.9478 6.92332 11.8362 7.0722C11.7617 7.14664 11.6873 7.22109 11.6501 7.33275C11.6128 7.40719 11.6128 7.51885 11.6501 7.59329C11.6501 7.70496 11.6873 7.7794 11.7617 7.85384C11.799 7.92828 11.8362 8.00272 11.9106 8.07716L13.995 10.7571C14.1066 10.9059 14.2183 10.9804 14.3672 11.0548C14.665 11.1293 14.9999 10.9059 15.0744 10.6082C15.0744 10.571 15.0744 10.5337 15.0744 10.4965C15.0372 10.3104 14.9627 10.1243 14.8511 9.97542L12.7295 7.29553Z" fill="white"/>
<path d="M16.1168 4.35471L18.9084 9.41673L17.9779 9.93782L15.1863 4.83858L14.2558 5.35967L13.7719 4.50359L16.6007 2.97754L17.0846 3.83362L16.1168 4.35471Z" fill="white"/>
<path d="M19.3919 1.82374C19.8385 1.60042 20.3596 1.60042 20.8435 1.82374C21.2901 2.12151 21.6251 2.60538 21.774 3.12647C21.8857 3.38702 21.9601 3.68478 21.9973 3.98255C22.0346 4.24309 21.9973 4.46642 21.9229 4.68974C21.8484 4.91307 21.7368 5.13639 21.5507 5.28527C21.3274 5.47138 21.0668 5.62026 20.8063 5.73192L20.3968 5.88081L21.2901 8.30016L20.3224 8.67236L18.0147 2.34483L19.3919 1.82374ZM19.3174 2.90315L20.0619 4.95029L20.3968 4.83863C20.6574 4.76418 20.8435 4.57808 20.9551 4.35475C20.9924 4.05699 20.9924 3.75922 20.8807 3.49868C20.8063 3.23813 20.6574 3.01481 20.4341 2.8287C20.2107 2.67982 19.9502 2.67982 19.7269 2.79148L19.3174 2.90315Z" fill="white"/>
<path d="M24.8262 3.94533L25.0124 0.372139L25.9801 0.186035L25.6079 5.58305C25.6079 5.88081 25.5334 6.2158 25.459 6.47634C25.4218 6.66245 25.3101 6.84855 25.1985 7.03466C25.0868 7.14632 24.9751 7.25798 24.8262 7.33242C24.6774 7.40686 24.5285 7.44409 24.3796 7.48131L24.0074 7.55575L23.8213 6.69967L24.0446 6.66245C24.1935 6.66245 24.3424 6.55079 24.4168 6.43912C24.4913 6.29024 24.5657 6.10414 24.5657 5.91803C24.5657 5.88081 24.5657 5.88081 24.5657 5.84359C24.5657 5.80637 24.5657 5.76915 24.5657 5.73193C24.5657 5.69471 24.5657 5.65749 24.5657 5.62027C24.5657 5.58305 24.5657 5.58305 24.5657 5.54583L22.3325 0.89323L23.3374 0.707126L24.789 3.98255L24.8262 3.94533Z" fill="white"/>
<path d="M27.6178 6.8114L27.655 8.07691L26.7617 8.11413L26.7245 5.95532L27.1339 5.84366C27.32 5.65756 27.4317 5.39701 27.4689 5.17369C27.5433 4.8387 27.5433 4.50371 27.5433 4.16873V0.0744415L30.5954 0L30.7443 5.76922H31.1538L31.2282 8.00246L30.3349 8.03969L30.2977 6.77418L27.6178 6.8114ZM28.4739 4.13151C28.4739 4.46649 28.4739 4.80148 28.4366 5.13647C28.3994 5.39701 28.3622 5.62034 28.2133 5.84366L29.6649 5.80644L29.5533 1.00496L28.4739 1.04218V4.13151Z" fill="white"/>
<path d="M33.9827 7.18341L34.4666 4.28019L33.2755 4.09408L32.7916 6.9973L31.7495 6.8112L32.8289 0.148682L33.871 0.334785L33.4244 3.12634L34.6154 3.31245L35.0621 0.520889L36.1043 0.706993L35.0249 7.36951L33.9827 7.18341Z" fill="white"/>
<path d="M39.5285 4.39204L36.7741 7.89079L35.8436 7.5558L38.1141 1.22827L39.0818 1.56326L37.6302 5.5831H37.6674L40.4218 2.04713L41.3895 2.38212L39.1191 8.70965L38.1513 8.37466L39.5285 4.39204Z" fill="white"/>
<path d="M44.0695 3.75948L42.8412 5.88107C42.7296 6.02995 42.6551 6.25327 42.6923 6.43938C42.7668 6.58826 42.8784 6.73714 43.0273 6.81159C43.1018 6.84881 43.1762 6.88603 43.2506 6.92325C43.3251 6.96047 43.4368 6.96047 43.5484 6.99769L45.0745 4.35502L45.9678 4.87611L42.5807 10.6825L41.6874 10.1615L43.0645 7.77933C42.9529 7.74211 42.804 7.70488 42.6923 7.66766C42.5807 7.63044 42.469 7.556 42.3574 7.48156C42.1712 7.3699 42.0224 7.25823 41.8735 7.10935C41.7618 6.99769 41.6502 6.81159 41.6129 6.6627C41.5757 6.4766 41.5757 6.29049 41.6129 6.10439C41.6502 5.88107 41.7618 5.65774 41.8735 5.43442L43.1762 3.20117L44.0695 3.75948Z" fill="white"/>
<path d="M43.3623 11.2406L47.6427 6.06689L49.9504 7.96515L49.3176 8.70957L47.8288 7.48128L46.6377 8.89567L47.9405 9.97507L47.3077 10.7567L46.005 9.67731L44.7767 11.1661L46.2655 12.3944L45.6328 13.1388L43.3623 11.2406Z" fill="white"/>
<path d="M52.2578 10.2728C52.4067 10.4589 52.5555 10.645 52.63 10.8683C52.7044 11.0544 52.7417 11.2405 52.7044 11.4638C52.7044 11.6499 52.63 11.8361 52.5183 12.0222C52.4067 12.2083 52.2578 12.3571 52.1089 12.506L51.2528 11.9105C51.4389 11.7988 51.5506 11.6127 51.625 11.4266C51.6622 11.2405 51.625 11.0544 51.5134 10.9428C51.4389 10.8683 51.3645 10.7939 51.2528 10.7566C51.1784 10.7194 51.0667 10.7194 50.9923 10.7566C50.9178 10.7939 50.8062 10.8311 50.7317 10.8683C50.6573 10.9055 50.5828 10.98 50.5084 11.0172L47.9402 13.2877C47.903 13.3249 47.8285 13.3993 47.7913 13.4365C47.7541 13.511 47.7169 13.5482 47.6796 13.6226C47.6424 13.6971 47.6424 13.7715 47.6796 13.8832C47.7169 13.9949 47.7541 14.0693 47.8285 14.1437C48.0891 14.4415 48.424 14.4043 48.8335 14.0321C48.9451 14.181 49.0196 14.3298 49.1312 14.4787C49.2429 14.6276 49.3173 14.7765 49.429 14.9254C49.094 15.2231 48.6846 15.4092 48.2379 15.4092C47.7913 15.372 47.3819 15.1487 47.1213 14.8137C46.7863 14.5159 46.6002 14.0693 46.6374 13.6226C46.7119 13.176 46.9352 12.7666 47.3074 12.506L49.8384 10.2728C50.0245 10.1239 50.2106 9.97501 50.434 9.86335C50.6201 9.75169 50.8062 9.71447 51.0295 9.67725C51.2528 9.67725 51.4761 9.71447 51.6623 9.78891C51.8484 9.90057 52.0717 10.0867 52.2578 10.2728Z" fill="white"/>
<path d="M54.3423 14.851L49.4664 17.9403L48.9081 17.047L53.7468 13.9577L53.1513 13.0272L53.9701 12.5061L55.6823 15.2232L54.8634 15.7443L54.3423 14.851Z" fill="white"/>
<path d="M54.4912 20.1363C54.5284 20.4341 54.4167 20.6946 54.2306 20.918C54.0073 21.1413 53.7467 21.3274 53.449 21.439C52.9651 21.6996 52.4068 21.774 51.8485 21.6251C51.3646 21.439 51.0296 21.0296 50.8435 20.5457L50.2852 19.2802L56.4639 16.6003L57.0594 17.9403C57.2827 18.3497 57.3199 18.8708 57.1338 19.3175C56.8733 19.7269 56.5011 20.0619 56.0544 20.2108C55.7939 20.3224 55.5333 20.3969 55.2356 20.3969C54.975 20.3969 54.7145 20.2852 54.5284 20.0991L54.4912 20.1363ZM53.114 20.5085C53.3373 20.4341 53.5606 20.2852 53.7095 20.0619C53.8212 19.8385 53.784 19.6152 53.6723 19.3919L53.5234 19.0197L51.6252 19.8385L51.774 20.2108C51.8113 20.3596 51.9229 20.4713 52.0346 20.5457C52.109 20.6202 52.2207 20.6574 52.3696 20.6574C52.4812 20.6574 52.6301 20.6574 52.7418 20.6202C52.8534 20.6202 52.9651 20.5457 53.114 20.5085ZM55.6078 19.3547C55.8311 19.2802 56.0172 19.1314 56.1289 18.908C56.2033 18.6847 56.1661 18.4614 56.0917 18.2753L55.9428 17.9775L54.3423 18.6847L54.4912 18.9825C54.5656 19.2058 54.7145 19.3547 54.9378 19.4291C55.1984 19.5036 55.4217 19.4663 55.6078 19.3547Z" fill="white"/>
<path d="M54.2308 25.7938C53.7841 25.9427 53.263 25.9054 52.8536 25.7193C52.4442 25.4588 52.1836 25.0494 52.1464 24.6027C51.9975 24.1561 52.0347 23.7094 52.2953 23.3C52.5558 22.965 52.9653 22.7044 53.4119 22.63L56.7246 21.8484C56.9851 21.7739 57.2084 21.7739 57.469 21.7739C57.6923 21.7739 57.8784 21.8111 58.1017 21.9228C58.2878 22.0345 58.4367 22.1461 58.5856 22.3322C58.7345 22.5556 58.8461 22.7789 58.8834 23.0394C58.9578 23.3 58.9578 23.5605 58.9578 23.8211C58.9206 24.0444 58.8461 24.2305 58.7345 24.3794C58.5856 24.5283 58.4367 24.6771 58.2506 24.7516C58.0273 24.8632 57.804 24.9377 57.5434 25.0121L54.2308 25.7938ZM57.2829 24.0072C57.469 23.97 57.6179 23.8955 57.7295 23.7838C57.8784 23.6722 57.9156 23.4489 57.8412 23.3C57.804 23.1883 57.7667 23.1139 57.6923 23.0394C57.6179 22.965 57.5434 22.9278 57.469 22.9278C57.3945 22.8905 57.2829 22.8905 57.1712 22.8905C57.0968 22.8905 56.9851 22.8905 56.9107 22.9278L53.598 23.7094C53.4491 23.7466 53.3002 23.8211 53.1886 23.9327C53.0769 24.0816 53.0397 24.2677 53.0769 24.4166C53.1141 24.6027 53.2258 24.7144 53.4119 24.7888C53.598 24.826 53.7841 24.826 53.9702 24.7888L57.2829 24.0072Z" fill="white"/>
<path d="M6.92306 35.4713C7.07195 35.9179 6.9975 36.4018 6.77418 36.8484C6.43919 37.2951 5.95532 37.5556 5.43423 37.6673C5.06202 37.7789 4.72704 37.7789 4.35483 37.7417C4.01984 37.7045 3.7593 37.5184 3.53597 37.2951L0.856078 38.97L0.595532 37.9278L3.08932 36.439L2.97766 35.9551L0.260545 36.5879L0 35.5829L6.55085 33.9824L6.92306 35.4713ZM5.84366 35.2479L3.90818 35.7318L4.01984 36.1412C4.05706 36.3645 4.20595 36.5507 4.39205 36.6623C4.6526 36.7368 4.91314 36.7368 5.17369 36.6623C5.43423 36.6251 5.65756 36.4762 5.84366 36.2901C5.99254 36.104 6.02976 35.8807 5.95532 35.6574L5.84366 35.2479Z" fill="white"/>
<path d="M4.20602 42.7294C3.79659 42.9528 3.2755 42.99 2.82885 42.8783C2.3822 42.6922 2.08443 42.3572 1.93555 41.9106C1.71223 41.5012 1.675 41.0173 1.82389 40.6079C2.04721 40.1984 2.3822 39.9007 2.82885 39.7518L5.95539 38.4118C6.17872 38.3002 6.40204 38.263 6.66259 38.1885C6.88591 38.1513 7.07202 38.1885 7.29534 38.2257C7.48144 38.3002 7.66755 38.4118 7.85365 38.5607C8.03976 38.7468 8.18864 38.9702 8.26308 39.1935C8.37474 39.4168 8.44918 39.6773 8.44918 39.9751C8.44918 40.1984 8.41196 40.3845 8.33752 40.5706C8.22586 40.7567 8.1142 40.9056 7.92809 41.0545C7.74199 41.2034 7.51867 41.3151 7.25812 41.4267L4.20602 42.7294ZM6.88591 40.4218C7.0348 40.3473 7.18368 40.2357 7.29534 40.124C7.407 39.9751 7.407 39.789 7.33256 39.6029C7.29534 39.4912 7.2209 39.4168 7.14646 39.3424C7.07202 39.3051 6.99757 39.2679 6.88591 39.2679C6.77425 39.2679 6.69981 39.2679 6.58815 39.3051C6.5137 39.3424 6.40204 39.3424 6.3276 39.3796L3.20106 40.7195C3.05217 40.794 2.90329 40.9056 2.82885 41.0173C2.75441 41.1662 2.75441 41.3523 2.82885 41.5012C2.86607 41.6873 3.01495 41.7989 3.20106 41.8361C3.38716 41.8734 3.57326 41.8361 3.72215 41.7617L6.88591 40.4218Z" fill="white"/>
<path d="M6.84857 46.6375C6.62524 46.7864 6.3647 46.8981 6.10415 47.0097C5.88083 47.0842 5.6575 47.1214 5.43418 47.1214C5.21085 47.0842 5.02475 47.0097 4.83864 46.8981C4.61532 46.7492 4.42922 46.5258 4.28033 46.3025C4.13145 46.0792 4.01979 45.8559 3.98257 45.5953C3.94535 45.372 3.94535 45.1859 3.98257 44.9626C4.01979 44.7765 4.13145 44.5904 4.24311 44.4415C4.39199 44.2926 4.54088 44.1437 4.72698 44.0321L5.4714 44.8137C5.28529 44.9254 5.13641 45.0742 5.02475 45.2603C4.95031 45.4464 4.95031 45.6325 5.09919 45.7814C5.17363 45.8931 5.24807 45.9675 5.35973 46.0048C5.43418 46.042 5.54584 46.042 5.6575 46.042C5.76916 46.042 5.88083 46.0048 5.95527 45.9303C6.06693 45.8559 6.17859 45.8187 6.29025 45.7442C6.40192 45.6698 6.51358 45.5953 6.62524 45.4837C6.69968 45.4092 6.77412 45.3348 6.81134 45.2231C6.84857 45.1115 6.84857 45.037 6.84857 44.9254C6.84857 44.7765 6.81134 44.6276 6.81134 44.4787C6.7369 44.1809 6.7369 43.8832 6.7369 43.5854C6.7369 43.3621 6.77412 43.176 6.88579 42.9527C6.96023 42.8038 7.07189 42.6177 7.18355 42.506C7.33244 42.3571 7.48132 42.2455 7.66742 42.1338C7.89075 41.9849 8.11407 41.8732 8.3374 41.7988C8.56072 41.7244 8.78405 41.7244 9.00737 41.7244C9.23069 41.7616 9.4168 41.836 9.6029 41.9477C9.82623 42.0966 9.97511 42.2827 10.124 42.506C10.2729 42.7293 10.3845 42.9899 10.4218 43.2504C10.459 43.4737 10.4218 43.6598 10.3845 43.8832C10.3101 44.0693 10.2357 44.2554 10.0868 44.367C9.97511 44.5159 9.82623 44.6276 9.67734 44.7392L8.89571 43.9948C9.08181 43.8832 9.23069 43.7343 9.34236 43.5482C9.4168 43.3621 9.37958 43.176 9.26792 43.0271C9.23069 42.9527 9.11903 42.8782 9.04459 42.8038C8.97015 42.7665 8.85849 42.7665 8.78405 42.7665C8.67238 42.7665 8.59794 42.8038 8.5235 42.841C8.44906 42.8782 8.3374 42.9154 8.26296 42.9899C8.18851 43.0271 8.07685 43.1015 8.00241 43.176C7.92797 43.2504 7.89075 43.3249 7.85353 43.3993C7.81631 43.511 7.81631 43.6598 7.81631 43.7715C7.81631 43.9576 7.85353 44.1437 7.89075 44.3298C7.96519 44.5904 7.96519 44.8509 7.96519 45.1487C7.96519 45.3348 7.89075 45.5581 7.81631 45.707C7.74186 45.8931 7.59298 46.042 7.48132 46.1536C7.22077 46.4142 7.03467 46.5258 6.84857 46.6375Z" fill="white"/>
<path d="M9.82623 50.0991C9.64012 50.2852 9.4168 50.4341 9.15625 50.583C8.97015 50.6947 8.74682 50.7691 8.5235 50.8063C8.30017 50.8063 8.07685 50.7691 7.89075 50.6947C7.40688 50.4341 7.03467 50.0247 6.84856 49.5408C6.77412 49.3547 6.7369 49.1314 6.77412 48.9081C6.77412 48.722 6.84856 48.4986 6.96023 48.3498C7.07189 48.1637 7.22077 48.0148 7.36966 47.8659L8.22573 48.4986C8.07685 48.6475 7.92797 48.8336 7.85353 49.0197C7.8163 49.2058 7.85353 49.4292 8.00241 49.5408C8.07685 49.6153 8.18851 49.6897 8.30017 49.7269C8.41184 49.7641 8.48628 49.7641 8.59794 49.7269C8.7096 49.6897 8.78404 49.6525 8.89571 49.578C9.00737 49.5036 9.08181 49.4292 9.19347 49.3547C9.30514 49.2803 9.37958 49.1686 9.49124 49.057C9.56568 48.9825 9.6029 48.8709 9.64012 48.7964C9.67734 48.6847 9.67734 48.5731 9.64012 48.4986C9.6029 48.3498 9.56568 48.2009 9.52846 48.0892C9.4168 47.8287 9.34236 47.5309 9.30514 47.2331C9.26791 47.0098 9.30514 46.7865 9.34236 46.6004C9.37958 46.4143 9.45402 46.2654 9.56568 46.1165C9.67734 45.9676 9.82623 45.8187 9.97511 45.6699C10.1612 45.4838 10.3845 45.3721 10.6079 45.2232C10.794 45.1116 11.0173 45.0743 11.2406 45.0371C11.4639 45.0371 11.6873 45.0743 11.8734 45.1488C12.0967 45.2604 12.32 45.4093 12.4689 45.6326C12.655 45.8187 12.8039 46.0793 12.8783 46.3026C12.9528 46.4887 12.9528 46.712 12.9155 46.9354C12.8783 47.1215 12.8039 47.3076 12.7294 47.4565C12.6178 47.6053 12.5061 47.7542 12.3945 47.8659L11.5012 47.2331C11.65 47.0843 11.7989 46.9354 11.8734 46.7493C11.9106 46.5632 11.8734 46.3398 11.7245 46.2282C11.65 46.1537 11.5756 46.0793 11.4639 46.0421C11.3895 46.0048 11.2778 46.0048 11.2034 46.0421C11.0917 46.0793 11.0173 46.1165 10.9428 46.1537C10.8684 46.191 10.794 46.2654 10.7195 46.3398C10.6451 46.4143 10.5706 46.4887 10.4962 46.5632C10.4218 46.6376 10.3845 46.712 10.3845 46.8237C10.3473 46.9354 10.3473 47.0843 10.3845 47.1959C10.4218 47.382 10.459 47.5681 10.5334 47.717C10.6451 47.9775 10.6823 48.2381 10.7195 48.4986C10.7567 48.6847 10.7195 48.9081 10.6823 49.0942C10.6079 49.2803 10.5334 49.4292 10.4218 49.578C10.124 49.7641 9.97511 49.9503 9.82623 50.0991Z" fill="white"/>
<path d="M13.2134 53.1885C12.9529 53.598 12.5434 53.8585 12.0596 53.9702C11.6129 54.0074 11.129 53.8585 10.794 53.5608C10.4218 53.3002 10.1613 52.8908 10.0869 52.4441C10.0869 51.9975 10.273 51.5508 10.5707 51.2159L12.6923 48.5732C12.8412 48.3871 13.0273 48.201 13.2134 48.0521C13.3995 47.9404 13.5856 47.8288 13.7717 47.7915C13.995 47.7543 14.1811 47.7543 14.4045 47.8288C14.665 47.9032 14.8883 48.0521 15.0744 48.201C15.2978 48.3499 15.4839 48.536 15.6327 48.7593C15.7444 48.9454 15.7816 49.1315 15.8189 49.3548C15.8189 49.5781 15.7816 49.7642 15.67 49.9503C15.5583 50.1737 15.4094 50.397 15.2605 50.6203L13.2134 53.1885ZM14.4789 49.8759C14.5906 49.727 14.665 49.5781 14.7022 49.392C14.7394 49.2059 14.6278 49.0198 14.4789 48.9454C14.4045 48.8709 14.2928 48.8337 14.1811 48.8337C14.1067 48.8337 13.995 48.8337 13.9206 48.8709C13.8462 48.9082 13.7345 48.9454 13.6973 49.0198C13.6228 49.0943 13.5484 49.1315 13.5112 49.2059L11.3896 51.8486C11.2779 51.9603 11.2035 52.1464 11.2035 52.2953C11.2035 52.6302 11.5012 52.8908 11.799 52.8536C11.8362 52.8536 11.8734 52.8536 11.9107 52.8536C12.0968 52.7791 12.2457 52.6675 12.3573 52.5186L14.4789 49.8759Z" fill="white"/>
<path d="M17.9406 51.3273L15.0746 56.3149L14.1813 55.7938L17.0473 50.8062L16.1168 50.2479L16.6006 49.3918L19.3922 50.9923L18.9083 51.8484L17.9406 51.3273Z" fill="white"/>
<path d="M21.1413 51.737C21.588 51.8859 21.9602 52.2209 22.1835 52.6303C22.3696 53.1514 22.3324 53.7097 22.0719 54.1936C21.9602 54.5286 21.7741 54.8636 21.5136 55.1241C21.2902 55.3474 20.9925 55.4963 20.6575 55.5335L20.5086 58.6973L19.5036 58.3251L19.6897 55.4219L19.2431 55.2358L18.2381 57.8412L17.2704 57.469L19.6897 51.1787L21.1413 51.737ZM20.3225 52.4814L19.6153 54.3053L20.0247 54.4541C20.2108 54.5658 20.4714 54.5658 20.6575 54.4541C21.0669 54.1192 21.253 53.5981 21.2158 53.077C21.1413 52.8536 20.9552 52.6675 20.7319 52.5931L20.3225 52.4814Z" fill="white"/>
<path d="M26.5386 53.1885L25.5336 58.1017C25.4592 58.5855 25.2359 58.995 24.9009 59.33C24.5287 59.5905 24.0448 59.6649 23.5981 59.5161C23.1515 59.4788 22.7421 59.2183 22.4815 58.8461C22.2582 58.4367 22.221 57.99 22.3326 57.5434L23.3376 52.5186L24.3798 52.7419L23.3376 57.7667C23.3004 57.9156 23.3004 58.1017 23.3748 58.2506C23.4493 58.3994 23.5981 58.5111 23.7843 58.5483C23.9704 58.5855 24.1565 58.5483 24.2681 58.4367C24.3798 58.2878 24.4914 58.1389 24.4914 57.9528L25.4964 53.0024L26.5386 53.1885Z" fill="white"/>
<path d="M28.9204 53.3003C29.2553 53.3003 29.5903 53.3747 29.8509 53.5236C30.0742 53.7097 30.2603 53.933 30.2975 54.2308C30.372 54.5658 30.4092 54.9008 30.372 55.1985C30.372 55.608 30.3347 56.0918 30.3347 56.6501C30.3347 57.2085 30.2975 57.6923 30.2603 58.1018C30.2603 58.4367 30.1859 58.7345 30.1114 59.0323C30.037 59.3673 29.8137 59.6278 29.5159 59.8139C29.2181 59.9628 28.9204 60 28.5854 60L27.0221 59.9628L27.2454 53.2258L28.9204 53.3003ZM29.367 55.0869C29.4042 54.9008 29.3298 54.6774 29.2553 54.4913C29.1437 54.3425 28.9204 54.2308 28.7342 54.268H28.2876L28.1387 59.0323H28.5854C28.7715 59.0695 28.9948 58.9951 29.1065 58.8462C29.2181 58.6601 29.2926 58.474 29.2553 58.2506L29.367 55.0869Z" fill="white"/>
<path d="M32.6426 55.9802L33.201 59.8511L32.1588 60L31.191 53.3375L32.1216 53.1886L33.201 55.0497C33.2754 55.1985 33.3871 55.3474 33.4615 55.4963C33.5359 55.6452 33.6476 55.7941 33.7221 55.943L34.2059 56.8362H34.2431H34.2804L33.7221 52.9653L34.727 52.8164L35.6948 59.4789L34.8015 59.6278L33.7221 57.7668L33.201 56.8735C33.0149 56.5757 32.8288 56.2779 32.6426 55.9802Z" fill="white"/>
<path d="M37.4068 59.0322L35.5458 52.5558L36.5507 52.2581L38.4118 58.7345L37.4068 59.0322Z" fill="white"/>
<path d="M38.8586 51.3648C39.0819 51.2532 39.3052 51.2159 39.5658 51.1787C39.7519 51.1787 39.9752 51.2159 40.1613 51.2904C40.3474 51.3648 40.4963 51.4765 40.608 51.6254C40.7568 51.7742 40.8685 51.9603 40.9429 52.1465L40.1241 52.7792C40.0496 52.5931 39.9008 52.407 39.7519 52.2953C39.603 52.1837 39.4169 52.1837 39.268 52.2581C39.0819 52.3326 38.933 52.4814 38.933 52.7048C38.933 52.7792 38.933 52.8909 38.9702 52.9653C39.0075 53.0397 39.0075 53.1514 39.0447 53.2259L40.3846 56.3524C40.4219 56.4268 40.4591 56.4641 40.4963 56.5385C40.5335 56.6129 40.608 56.6502 40.6452 56.6874C40.7196 56.7246 40.7941 56.7618 40.8685 56.7618C40.9802 56.7618 41.0546 56.7618 41.1663 56.7246C41.5013 56.5757 41.5757 56.2407 41.3896 55.7196L41.9107 55.5708L42.4318 55.4219C42.6179 55.8313 42.6551 56.278 42.5062 56.6874C42.3573 57.0968 42.0223 57.4318 41.5757 57.5807C41.1663 57.804 40.7196 57.8412 40.273 57.6923C39.8635 57.5062 39.5658 57.134 39.4169 56.7246L38.1142 53.6353C38.0025 53.412 37.9653 53.1886 37.8908 52.9281C37.8536 52.7048 37.8536 52.4814 37.9281 52.2953C37.9653 52.072 38.0769 51.8859 38.2258 51.737C38.3747 51.6254 38.598 51.4765 38.8586 51.3648Z" fill="white"/>
<path d="M46.34 55.0123L44.7395 52.5185L43.7346 53.1512L45.3351 55.645L44.4418 56.2033L40.7941 50.5458L41.6874 49.9874L43.2135 52.3696L44.2184 51.7368L42.6924 49.3547L43.5857 48.7964L47.2333 54.4539L46.34 55.0123Z" fill="white"/>
<path d="M48.6847 53.263L44.181 48.2382L46.4143 46.2283L47.0843 46.9727L45.6326 48.2754L46.8609 49.6526L48.1264 48.536L48.7964 49.2804L47.5309 50.397L48.8336 51.8486L50.2852 50.5459L50.9552 51.2903L48.6847 53.263Z" fill="white"/>
<path d="M52.4813 46.4887C52.7046 46.6748 52.8907 46.8609 53.0768 47.0842C53.2257 47.2703 53.3374 47.4564 53.3746 47.6798C53.4118 47.9031 53.4118 48.1264 53.3374 48.3497C53.263 48.6103 53.1141 48.8336 52.928 49.0569C52.7791 49.243 52.593 49.4291 52.3697 49.578C52.1835 49.6897 51.9974 49.7269 51.7741 49.7641C51.588 49.7641 51.3647 49.7269 51.1786 49.6524C50.9925 49.578 50.8064 49.4663 50.6203 49.3175L51.1414 48.3869C51.3275 48.5358 51.5136 48.6103 51.6997 48.6847C51.8858 48.7219 52.0719 48.6103 52.1835 48.4614C52.258 48.3869 52.3324 48.2753 52.3324 48.1636C52.3324 48.052 52.3324 47.9775 52.2952 47.8659C52.258 47.7542 52.1835 47.6797 52.1091 47.6053C52.0347 47.5309 51.923 47.4564 51.8113 47.3448C51.6997 47.2703 51.588 47.1587 51.4764 47.1214C51.4019 47.0842 51.2903 47.047 51.1786 47.047C51.0669 47.047 50.9553 47.047 50.8808 47.0842C50.7319 47.1214 50.6203 47.1959 50.4714 47.2703C50.2109 47.4192 49.9503 47.5309 49.6525 47.6053C49.4292 47.6797 49.2431 47.6798 49.0198 47.6798C48.8337 47.6798 48.6476 47.6053 48.4987 47.5309C48.3126 47.4192 48.1637 47.3075 48.0148 47.1959C47.8287 47.047 47.6426 46.8609 47.4937 46.6376C47.3821 46.4515 47.2704 46.2654 47.2332 46.042C47.196 45.8187 47.196 45.5954 47.2704 45.4093C47.3449 45.1487 47.4565 44.9254 47.6426 44.7393C47.7915 44.516 48.0148 44.3671 48.2382 44.2182C48.4243 44.1438 48.6476 44.0693 48.8337 44.0693C49.0198 44.0693 49.2059 44.1066 49.392 44.181C49.5781 44.2554 49.727 44.3671 49.8759 44.4788L49.392 45.4465C49.2431 45.2976 49.057 45.2232 48.8337 45.1487C48.6476 45.1115 48.4615 45.2232 48.3498 45.3721C48.2754 45.4465 48.2381 45.5582 48.2009 45.6698C48.2009 45.7443 48.2009 45.8559 48.2382 45.9304C48.2754 46.0048 48.3126 46.1165 48.387 46.1537C48.5359 46.3026 48.6848 46.4142 48.8337 46.5259C48.9081 46.5631 49.0198 46.6003 49.0942 46.6003C49.2059 46.6003 49.3176 46.5631 49.4292 46.5259C49.6153 46.4515 49.7642 46.377 49.9503 46.3026C50.1736 46.1537 50.4342 46.0793 50.6947 46.0048C50.8808 45.9676 51.1041 45.9304 51.2903 45.9676C51.4764 46.0048 51.6625 46.0793 51.8113 46.1537C52.1463 46.2281 52.2952 46.3398 52.4813 46.4887Z" fill="white"/>
<path d="M50.7692 41.9849L55.7195 44.9254L55.1984 45.8187L50.2481 42.8782L49.6898 43.8088L48.8337 43.3249L50.4714 40.5706L51.3275 41.0544L50.7692 41.9849Z" fill="white"/>
<path d="M51.5507 38.0766L51.9602 37.0344L57.6922 40.7565L57.2083 41.9103L50.5085 40.5332L50.918 39.491L53.6723 40.1237L55.7567 40.6448V40.6076L53.8956 39.5282L51.5507 38.0766Z" fill="white"/>
<path d="M57.6177 34.7269C58.1016 34.8014 58.511 35.0247 58.846 35.3969C59.2554 36.2158 59.0321 37.2579 58.3249 37.8163C57.9155 38.0024 57.4688 38.0396 57.0222 37.9279L53.7095 37.1835C53.4862 37.1463 53.2256 37.0346 53.0023 36.923C52.8162 36.8113 52.6301 36.6996 52.5185 36.5135C52.4068 36.3274 52.2951 36.1413 52.2579 35.918C52.2207 35.6574 52.2207 35.4341 52.2951 35.1736C52.3324 34.913 52.444 34.6525 52.5929 34.4292C52.7046 34.2431 52.8534 34.1314 53.0395 34.0197C53.2256 33.9453 53.449 33.8708 53.6351 33.8708C53.8956 33.8708 54.1189 33.9081 54.3795 33.9453L57.6177 34.7269ZM54.1189 34.9875C53.9328 34.9503 53.784 34.9503 53.5979 34.9875C53.4118 35.0619 53.3001 35.2108 53.2629 35.3969C53.2257 35.5086 53.2257 35.6202 53.2629 35.6947C53.3001 35.7691 53.3373 35.8436 53.4118 35.918C53.4862 35.9924 53.5606 36.0297 53.6723 36.0669C53.7467 36.1041 53.8584 36.1413 53.9328 36.1413L57.2455 36.8857C57.3944 36.923 57.5805 36.923 57.7294 36.8485C57.8782 36.7741 57.9899 36.6624 58.0271 36.4763C58.0643 36.2902 58.0271 36.1041 57.9155 35.9924C57.7666 35.8808 57.6177 35.7691 57.4316 35.7319L54.1189 34.9875Z" fill="white"/>
<path d="M3.87113 29.9626C3.87113 30.4465 3.4617 30.8559 2.97783 30.8559C2.49396 30.8559 2.08453 30.4465 2.08453 29.9626C2.08453 29.4788 2.49396 29.0693 2.97783 29.0693C3.4617 29.0693 3.87113 29.4788 3.87113 29.9626Z" fill="white"/>
<path d="M55.3846 29.9626C55.3846 29.4788 55.7941 29.0693 56.2779 29.0693C56.7618 29.0693 57.1712 29.4788 57.1712 29.9626C57.1712 30.4465 56.7618 30.8559 56.2779 30.8559C55.7941 30.8559 55.3846 30.4837 55.3846 29.9626Z" fill="white"/>
</svg>
