<svg width="66" height="60" viewBox="0 0 66 60" fill="none" xmlns="http://www.w3.org/2000/svg">
<path d="M5.30245 53.5117H1.8421V59.9381H3.51048V57.9607H5.36424C6.22933 57.9607 6.84725 57.3428 6.84725 56.6013V54.9329C6.78546 54.1914 6.22933 53.5117 5.30245 53.5117ZM5.11707 56.4777C5.11707 56.6631 4.99349 56.7867 4.80811 56.7867H3.51048V54.7476H4.80811C4.99349 54.7476 5.11707 54.8711 5.11707 55.0565V56.4777Z" fill="white"/>
<path d="M11.4196 59.9999C12.2847 59.9999 12.9027 59.382 12.9027 58.6405V54.8094C12.9027 54.0679 12.3465 53.45 11.4196 53.45H9.25693C8.39184 53.45 7.77393 54.0679 7.77393 54.8094V58.6405C7.77393 59.4438 8.33005 59.9999 9.25693 59.9999H11.4196ZM9.44231 54.933C9.44231 54.7476 9.56589 54.624 9.75127 54.624H10.9253C11.1107 54.624 11.2343 54.7476 11.2343 54.933V58.5169C11.2343 58.7023 11.1107 58.8258 10.9253 58.8258H9.75127C9.56589 58.8258 9.44231 58.7023 9.44231 58.5169V54.933Z" fill="white"/>
<path d="M16.0541 54.7476H18.3404L18.7112 54.315V53.5117H15.5598C14.6947 53.5117 14.0768 54.1296 14.0768 54.8711V58.5169C14.0768 59.3202 14.6329 59.8763 15.5598 59.8763H18.7112V58.7022H16.0541C15.8687 58.7022 15.7452 58.5787 15.7452 58.3933V54.9947C15.7452 54.8711 15.8687 54.7476 16.0541 54.7476Z" fill="white"/>
<path d="M24.6433 58.6405V54.8094C24.6433 54.0679 24.0872 53.45 23.1603 53.45H20.9976C20.1325 53.45 19.5146 54.0679 19.5146 54.8094V58.6405C19.5146 59.4438 20.0707 59.9999 20.9976 59.9999H23.1603C24.0872 59.9999 24.6433 59.4438 24.6433 58.6405ZM22.9749 58.5169C22.9749 58.7023 22.8514 58.8258 22.666 58.8258H21.4919C21.3066 58.8258 21.183 58.7023 21.183 58.5169V54.933C21.183 54.7476 21.3066 54.624 21.4919 54.624H22.666C22.8514 54.624 22.9749 54.7476 22.9749 54.933V58.5169Z" fill="white"/>
<path d="M30.2044 54.7476L30.5752 54.315V53.5117H26.0026V59.9381H29.4629C30.3898 59.9381 30.9459 59.3202 30.9459 58.5787V57.3428C30.9459 56.5395 30.3898 55.9834 29.4629 55.9834H27.6092V54.7476H30.2044ZM28.9686 57.1574C29.154 57.1574 29.2775 57.281 29.2775 57.4664V58.4551C29.2775 58.6404 29.154 58.764 28.9686 58.764H27.6709V57.1574H28.9686Z" fill="white"/>
<path d="M37.1252 54.9332C37.1252 54.1917 36.5691 53.5737 35.6422 53.5737H32.1818V59.9383H33.8502V57.961H35.704C36.5691 57.961 37.187 57.343 37.187 56.6015V54.9332H37.1252ZM35.4568 56.478C35.4568 56.6633 35.3332 56.7869 35.1478 56.7869H33.8502V54.7478H35.1478C35.3332 54.7478 35.4568 54.8714 35.4568 55.0567V56.478Z" fill="white"/>
<path d="M38.114 54.9329V58.5787C38.114 59.382 38.6701 59.9381 39.597 59.9381H42.7483V58.764H40.0913C39.9059 58.764 39.7823 58.6404 39.7823 58.4551V55.0565C39.7823 54.8711 39.9059 54.7476 40.0913 54.7476H42.3776L42.7483 54.315V53.5117H39.597C38.7319 53.5117 38.114 54.1296 38.114 54.9329Z" fill="white"/>
<path d="M48.6803 58.6405V54.8094C48.6803 54.0679 48.1242 53.45 47.1973 53.45H45.0346C44.1695 53.45 43.5516 54.0679 43.5516 54.8094V58.6405C43.5516 59.4438 44.1077 59.9999 45.0346 59.9999H47.1973C48.0624 59.9999 48.6803 59.4438 48.6803 58.6405ZM47.0119 58.5169C47.0119 58.7023 46.8883 58.8258 46.703 58.8258H45.5289C45.3435 58.8258 45.22 58.7023 45.22 58.5169V54.933C45.22 54.7476 45.3435 54.624 45.5289 54.624H46.703C46.8883 54.624 47.0119 54.7476 47.0119 54.933V58.5169Z" fill="white"/>
<path d="M56.1571 53.45H54.0562C53.1911 53.45 52.5732 54.0679 52.5732 54.8094V56.107H51.5845V53.5117H49.9161V59.9381H51.5845V57.3428H52.5732V58.6405C52.5732 59.4438 53.1293 59.9999 54.0562 59.9999H56.1571C57.0222 59.9999 57.6401 59.382 57.6401 58.6405V54.8094C57.6401 54.0679 57.084 53.45 56.1571 53.45ZM55.9718 58.5169C55.9718 58.7023 55.8482 58.8258 55.6628 58.8258H54.5505C54.3652 58.8258 54.2416 58.7023 54.2416 58.5169V54.933C54.2416 54.7476 54.3652 54.624 54.5505 54.624H55.6628C55.8482 54.624 55.9718 54.7476 55.9718 54.933V58.5169Z" fill="white"/>
<path d="M62.707 56.8485C62.5217 56.7867 62.3981 56.7249 62.2127 56.6631V56.6013C62.3981 56.5395 62.5217 56.5395 62.707 56.4159C62.9542 56.2924 63.2014 56.0452 63.2014 55.6126V54.8711C63.2014 54.0678 62.6452 53.5117 61.7184 53.5117H58.5052V54.315L58.8759 54.7476H61.224C61.4094 54.7476 61.533 54.8711 61.533 55.0565V55.8598C61.533 56.0452 61.4094 56.1688 61.224 56.1688H59.6174V57.3428H61.2858C61.4712 57.3428 61.5948 57.4664 61.5948 57.6518V58.4551C61.5948 58.6404 61.4712 58.764 61.2858 58.764H58.3816V59.9381H61.7801C62.6452 59.9381 63.2632 59.3202 63.2632 58.5787V57.6518C63.2632 57.2192 62.9542 56.9721 62.707 56.8485Z" fill="white"/>
<path d="M39.9677 19.4027C39.6587 19.5881 39.3498 19.7735 38.979 19.9589L43.3662 24.655C43.4898 24.5933 43.6752 24.5933 43.7988 24.5315C44.1695 24.4079 44.5403 24.3461 44.9728 24.2843L41.3271 18.4141C40.9563 18.7848 40.462 19.0938 39.9677 19.4027Z" fill="white"/>
<path d="M21.3066 23.6664C21.4302 23.7282 21.5537 23.7282 21.7391 23.79L25.2613 19.9589C24.9523 19.8353 24.7051 19.6499 24.458 19.4645C24.2108 19.2792 23.9018 19.1556 23.6547 18.9702C23.4075 18.7848 23.2839 18.5995 23.0985 18.3523L20.0707 23.3574C20.5033 23.481 20.874 23.5428 21.3066 23.6664Z" fill="white"/>
<path d="M25.7555 16.004C26.0645 16.1894 26.3116 16.3748 26.6206 16.5602C26.9914 16.8073 27.4239 16.9927 27.7947 17.1781L32.0583 12.6055L36.3837 17.1781C36.8781 16.9927 37.3106 16.7455 37.8049 16.4984C38.4229 16.1276 38.979 15.7569 39.4733 15.2625L35.5804 8.95974C35.1479 9.82483 34.4064 10.5045 33.5413 10.8135C33.2941 10.9371 32.9852 10.9989 32.6762 10.9989C32.5526 10.9989 32.429 10.9989 32.2437 10.9989C32.1819 10.9989 32.1201 10.9989 32.1201 10.9989C31.6875 10.9989 31.3168 10.8753 30.946 10.7517C30.081 10.4427 29.3394 9.76304 28.9069 8.89795L24.7668 15.6333C25.1376 15.6333 25.4466 15.7569 25.7555 16.004Z" fill="white"/>
<path d="M56.3425 35.3449C55.9717 35.3449 55.6628 35.3449 55.292 35.3449L63.5722 45.417C56.2189 41.2152 48.4949 40.3501 40.7709 43.0689C38.1757 43.934 35.5804 45.2316 33.0469 46.9618V46.1585C32.9234 46.2821 32.738 46.4057 32.6144 46.5911V32.1317C33.5413 31.2049 34.4682 30.4016 35.395 29.6601C34.4682 30.1544 33.5413 30.6487 32.6144 31.2667C32.6144 31.2667 32.5526 31.2667 32.5526 31.2049C28.8451 27.6827 25.1376 25.3346 21.5536 24.2224C18.7112 23.3573 16.2395 23.4191 13.5825 24.0988L13.3971 24.1606L0.4208 36.8279C0.4208 36.8279 3.5104 36.21 7.95942 36.3954L0.0500488 46.6529C0.0500488 46.6529 0.111841 46.6529 0.173633 46.5911C1.1623 46.0967 8.20658 42.76 15.8688 42.6982C21.3683 42.6982 26.806 45.1698 32.1201 48.8774L32.4908 49.1245L32.5526 49.0627L32.6144 49.0009L32.9234 48.8156C34.221 47.8887 35.5804 47.0236 36.9398 46.2821C38.6082 45.3552 40.3384 44.5519 42.0068 43.934C42.6865 43.6868 43.3662 43.5015 44.0459 43.3161C44.7256 43.1307 45.4053 43.0071 46.085 42.8835C47.1355 42.6982 48.1242 42.6364 49.1746 42.6364C56.2807 42.6982 62.8924 45.5406 64.6226 46.3439C64.9316 46.4675 65.0552 46.5293 65.0552 46.5293L56.3425 35.3449ZM1.28589 45.6642L7.77404 37.5076L8.57734 36.4572C10.8636 36.6426 13.5207 37.0133 16.2395 37.8166C19.2055 38.7435 22.1716 40.4119 25.1376 42.6364C25.7555 43.1307 26.3734 43.625 26.9913 44.1194C18.3405 40.2265 9.44242 40.9062 1.28589 45.6642ZM32.0583 46.8382C21.9862 37.0133 11.2962 33.6765 1.59485 36.21L13.6443 24.8403C19.6381 23.2955 26.0645 25.7672 32.3672 31.8228L32.0583 46.8382Z" fill="white"/>
<path d="M32.2437 10.3192C33.8817 10.3192 35.2097 8.9913 35.2097 7.35322C35.2097 5.71514 33.8817 4.38721 32.2437 4.38721C30.6056 4.38721 29.2776 5.71514 29.2776 7.35322C29.2776 8.9913 30.6056 10.3192 32.2437 10.3192Z" fill="white"/>
<path d="M39.288 18.6611C39.9677 18.6611 40.4621 18.105 40.4621 17.487C40.4621 16.8073 39.9059 16.313 39.288 16.313C38.6083 16.313 38.114 16.8691 38.114 17.487C38.114 18.1667 38.6701 18.6611 39.288 18.6611Z" fill="white"/>
<path d="M25.014 19.279C27.9183 20.9473 31.3786 21.627 34.9007 20.8855C36.5073 20.5766 38.0521 19.9587 39.3498 19.1554C39.288 19.1554 39.288 19.1554 39.2262 19.1554C38.9172 19.1554 38.6083 19.0318 38.2993 18.9082C37.187 19.4643 35.9512 19.9587 34.7154 20.2058C31.6258 20.8238 28.5362 20.3912 25.8791 18.97C25.6937 19.1554 25.3848 19.2172 25.014 19.279Z" fill="white"/>
<path d="M34.4064 18.2903C31.6258 18.8464 28.8452 18.3521 26.4971 17.0544C26.5589 17.2398 26.6207 17.4252 26.6207 17.6106C26.6207 17.7342 26.6207 17.7959 26.6207 17.9195C29.0923 19.1554 31.8112 19.5261 34.5918 18.97C35.7041 18.7228 36.7545 18.3521 37.7432 17.8577C37.7432 17.7342 37.6814 17.6106 37.6814 17.487C37.6814 17.3634 37.6814 17.178 37.7432 17.0544C36.6927 17.6106 35.5805 18.0431 34.4064 18.2903Z" fill="white"/>
<path d="M42.4394 13.5941C42.563 13.4705 42.6865 13.347 42.8719 13.2852C42.9955 13.2852 43.1191 13.2852 43.3045 13.347C43.4898 13.4705 43.5516 13.5941 43.6134 13.7795C43.6752 13.9649 43.6134 14.0885 43.5516 14.2121C42.8101 15.3243 41.945 16.3748 40.9564 17.1781C40.9564 17.3016 41.0182 17.3634 41.0182 17.487C41.0182 17.7342 40.9564 17.9814 40.8328 18.2285C42.1304 17.2399 43.3045 16.004 44.1696 14.5828C44.5403 13.9649 44.3549 13.1616 43.737 12.729C43.1191 12.3583 42.3158 12.5437 41.945 13.1616C41.3271 14.1503 40.462 15.0771 39.5352 15.8186C39.8441 15.8804 40.0913 15.9422 40.2767 16.1276C41.08 15.3861 41.8215 14.521 42.4394 13.5941Z" fill="white"/>
<path d="M24.9522 18.7846C25.6006 18.7846 26.1262 18.259 26.1262 17.6106C26.1262 16.9622 25.6006 16.4365 24.9522 16.4365C24.3038 16.4365 23.7781 16.9622 23.7781 17.6106C23.7781 18.259 24.3038 18.7846 24.9522 18.7846Z" fill="white"/>
<path d="M32.182 3.64572C32.2437 3.64572 32.2437 3.64572 32.2437 3.64572C32.4291 3.64572 32.6145 3.64572 32.7999 3.70752V0.556127C32.7999 0.247168 32.5527 0 32.2437 0C31.9348 0 31.6876 0.247168 31.6876 0.556127V3.70752C31.8112 3.64572 31.9348 3.64572 32.182 3.64572C32.1202 3.64572 32.1202 3.64572 32.182 3.64572Z" fill="white"/>
<path d="M32.7997 36.21C33.7266 35.3449 34.2828 34.8506 35.2714 34.1091V33.553C34.7771 33.9237 34.4063 34.2327 34.0356 34.6034L33.912 34.727C33.603 35.036 33.2941 35.3449 32.8615 35.6539V36.21H32.7997Z" fill="white"/>
<path d="M39.8441 26.8177C39.8441 27.0031 39.9058 27.1267 39.9058 27.2503C40.5856 26.8795 41.0181 26.6941 41.6978 26.3852C41.636 26.2616 41.636 26.138 41.5742 25.9526C40.9563 26.2616 40.5856 26.447 39.8441 26.8177Z" fill="white"/>
<path d="M43.8605 26.8178C44.5402 26.5706 44.9109 26.5088 45.5289 26.3234C45.4671 26.1381 45.4053 26.0145 45.2817 25.8291C44.6638 25.9527 44.293 26.0763 43.6751 26.2616C43.7369 26.5088 43.7987 26.6324 43.8605 26.8178Z" fill="white"/>
<path d="M33.1705 34.4798C32.9851 34.6034 32.9233 34.727 32.7997 34.8506V35.036C33.1087 34.727 33.3559 34.4798 33.6648 34.2327C33.7266 34.1709 33.7884 34.1709 33.7884 34.1091C34.221 33.7383 34.6535 33.3676 35.2714 32.8732L36.0129 32.3171L35.9511 31.761C35.3332 32.2553 34.7153 32.7497 33.912 33.4294L33.8502 33.4912C33.8502 33.4912 33.4177 33.8619 33.2323 34.0473V34.2327L33.1705 34.4798Z" fill="white"/>
<path d="M45.776 29.0423C45.776 29.1041 45.8378 29.1659 45.8996 29.2895C46.7029 29.0423 47.1972 28.9187 47.7534 28.7951L47.9387 28.7333C48.4949 28.6097 49.051 28.5479 49.7925 28.4862L49.2364 27.6829C47.8151 27.8064 47.0119 27.93 45.5906 28.3626L45.8378 28.8569C45.7142 28.9805 45.776 28.9805 45.776 29.0423Z" fill="white"/>
<path d="M37.8667 28.7951C36.0129 29.9692 34.9625 30.7725 33.2323 32.3791C33.2323 32.8116 33.2323 33.1824 33.2323 33.5531C33.3559 33.4295 33.4795 33.306 33.6031 33.1824C33.6648 33.1206 33.6648 33.1206 33.7266 33.0588C34.5299 32.3173 35.2096 31.7612 35.9511 31.205C36.0129 31.1432 36.0747 31.1432 36.1365 31.0814C36.6309 30.7107 37.1252 30.3399 37.9285 29.8456C37.9285 29.7838 37.8049 29.2277 37.8049 29.2277L37.9903 29.1041C38.67 28.6716 39.1025 28.4244 39.7822 28.0536C39.7822 27.8683 39.7205 27.7447 39.7205 27.6211C39.0407 28.0536 38.6082 28.3008 37.8667 28.7951Z" fill="white"/>
<path d="M42.3776 28.5478L42.254 28.1152C41.5743 28.4242 41.2035 28.6096 40.5238 28.9803L40.5856 29.4129C41.2653 29.0421 41.6979 28.8567 42.3776 28.5478Z" fill="white"/>
<path d="M49.7925 26.5705C49.8543 26.5705 49.9161 26.5705 49.9779 26.5705C49.9161 26.4469 49.7925 26.3233 49.669 26.1997C49.5454 26.1997 49.36 26.1997 49.2364 26.1997C48.8039 26.1997 48.4949 26.1997 47.9388 26.2615C48.0006 26.3851 48.0624 26.5087 48.186 26.6322C48.8657 26.5705 49.2982 26.5705 49.7925 26.5705Z" fill="white"/>
<path d="M39.5969 31.2668V31.3286L39.4733 31.3904C39.1025 31.6375 38.7318 31.8229 38.361 32.0701L38.67 33.8621C39.4115 33.4295 40.0912 33.0588 40.7091 32.7498V32.6262C40.5855 32.1937 40.5237 31.7611 40.4002 31.0814V30.9578L40.5237 30.896C41.0799 30.5871 41.636 30.3399 42.1303 30.0927L42.0067 29.5366C41.0181 29.9692 40.2766 30.4017 39.5969 30.7725V31.2668Z" fill="white"/>
<path d="M43.1191 30.1544C43.3045 30.7723 43.428 31.1431 43.4898 31.3903C44.8493 30.8341 46.5176 30.278 48.1242 29.8455C48.0006 29.6601 47.8771 29.4747 47.7535 29.2275C47.2591 29.3511 46.6412 29.4747 45.8379 29.7219L45.6526 29.7837L45.5908 29.6601L45.4672 29.3511C44.6021 29.5365 43.8606 29.8455 43.1191 30.1544Z" fill="white"/>
<path d="M48.9274 25.0258C49.36 25.0258 49.7307 25.0258 50.2251 25.0876C50.1633 24.964 50.0397 24.9022 49.9779 24.7786C49.36 24.7168 48.9892 24.655 48.4949 24.655C48.4331 24.655 48.3713 24.655 48.3095 24.655C48.3713 24.7786 48.4331 24.8404 48.5567 25.0258C48.6803 25.0876 48.8038 25.0258 48.9274 25.0258Z" fill="white"/>
<path d="M38.8554 29.5366C38.6701 29.6602 38.5465 29.722 38.3611 29.8456L38.4229 30.2163C38.4229 30.2163 36.9399 31.205 36.3838 31.5758C36.3838 31.8229 36.3838 32.0083 36.4456 32.2555V32.5026V32.6262L36.1366 32.8734C36.1366 32.997 36.1366 33.1206 36.1366 33.1823C37.0017 32.5026 37.8668 31.9465 39.1026 31.205C38.979 30.5253 38.9172 30.1545 38.8554 29.5366Z" fill="white"/>
<path d="M36.1983 35.2213C35.8275 35.4685 35.5186 35.7157 35.2096 35.9628V36.2718C36.2601 35.4685 37.3105 34.7888 38.2992 34.1709L37.9902 32.3789C37.3105 32.8114 36.7544 33.1822 36.1983 33.6765C36.1983 34.0473 36.2601 34.418 36.2601 34.8506V35.0978L36.1983 35.2213Z" fill="white"/>
<path d="M42.6865 30.3398C42.1304 30.587 41.5125 30.896 40.8945 31.2667C40.8945 31.2667 41.3271 33.2441 41.3889 33.7384C43.9841 32.3172 45.6525 31.6375 48.8039 31.0196C48.6803 30.7724 48.4949 30.5252 48.3714 30.3398C46.6412 30.7724 44.8492 31.3285 43.428 31.9464L43.1808 32.0082L43.0572 31.6375C42.9955 31.3903 42.8101 30.8342 42.6865 30.3398Z" fill="white"/>
<path d="M51.3992 34.6652C51.3374 34.5416 51.2757 34.418 51.1521 34.2944C50.2252 34.4798 49.6691 34.6034 48.7422 34.8506C48.804 34.9741 48.8658 35.0977 48.9276 35.2831C49.9162 35.0359 50.4724 34.8506 51.3992 34.6652Z" fill="white"/>
<path d="M51.0284 32.4407C49.9162 32.626 49.2983 32.7496 48.1242 33.0586C48.186 33.1822 48.2478 33.3058 48.3096 33.4911C49.4836 33.1822 50.1633 32.9968 51.2756 32.8732L51.0284 32.4407Z" fill="white"/>
<path d="M46.3322 34.0474C44.4785 34.6653 43.6134 35.0978 42.0068 35.9629C42.1304 36.4573 42.1922 36.7662 42.2539 37.1988C43.9223 36.3337 44.911 35.8393 46.8265 35.1596C46.6412 34.7271 46.5176 34.4799 46.3322 34.0474Z" fill="white"/>
<path d="M32.7997 37.446C33.8502 36.4573 34.5917 35.8394 35.8276 34.9125V34.8508C35.8276 34.4182 35.7658 34.0475 35.7658 33.6767C35.7658 33.6767 35.7658 33.306 35.7658 33.1824L35.704 33.2442C35.704 33.2442 35.704 33.6767 35.704 33.7385C35.704 33.8003 35.704 34.2328 35.704 34.2328V34.2946L35.6422 34.3564C34.5299 35.2215 33.912 35.7776 32.7997 36.7663V37.446Z" fill="white"/>
<path d="M51.152 30.4634C50.3487 30.5252 49.7308 30.587 49.1129 30.7105L49.4837 31.3285L49.1747 31.3903C45.8997 32.0082 44.2931 32.6879 41.3271 34.2945L41.08 34.4181L41.0182 34.1709C40.9564 33.8619 40.8946 33.553 40.8328 33.3058C40.6474 33.4294 40.4002 33.553 40.1531 33.6148L40.5856 35.7775C42.4394 34.6652 44.1696 33.9237 46.703 33.1204L46.5794 32.8115L46.703 32.7497C48.6804 32.07 49.9162 31.8228 52.0171 31.6374C51.7082 31.2049 51.152 30.4634 51.152 30.4634Z" fill="white"/>
<path d="M54.3651 31.6993C54.9831 31.6993 55.4774 31.6993 56.2189 31.8229L55.9099 31.514C55.0449 31.3904 54.5505 31.3904 53.809 31.3904C53.6854 31.3904 53.6236 31.3904 53.5001 31.3904L53.809 31.7611C53.9944 31.6993 54.1798 31.6993 54.3651 31.6993Z" fill="white"/>
<path d="M42.8101 39.2378C43.7988 38.6817 44.3549 38.4345 45.4054 37.9402C45.3436 37.7548 45.3436 37.5694 45.2818 37.384C44.2932 37.8166 43.737 38.0637 42.7484 38.6199C42.7484 38.867 42.8101 38.9906 42.8101 39.2378Z" fill="white"/>
<path d="M50.3487 29.7219C51.152 29.6601 51.5845 29.5983 52.2025 29.5983C52.326 29.5983 52.3878 29.5983 52.5114 29.5983L52.2025 29.2275C52.0171 29.2275 51.8317 29.2275 51.6463 29.2275C51.0902 29.2275 50.7194 29.2275 50.0397 29.2893L50.3487 29.7219Z" fill="white"/>
<path d="M36.5691 40.9682C37.6814 40.1031 38.8554 39.2998 40.6474 38.3111C40.5856 38.0021 40.5856 37.8168 40.5238 37.5078C38.8554 38.4965 37.7432 39.238 36.5073 40.1649C36.5073 40.3502 36.5691 40.9682 36.5691 40.9682Z" fill="white"/>
<path d="M40.8945 39.7323C40.8327 39.3616 40.8327 39.0526 40.771 38.7437C38.0521 40.3502 36.7545 41.3389 34.53 43.2545V44.3667C36.7545 42.4512 38.1139 41.4007 40.8945 39.7323Z" fill="white"/>
<path d="M32.7997 39.176C33.4795 38.5581 33.9738 38.1255 34.8389 37.4458V36.8279C34.0974 37.4458 33.603 37.8783 32.8615 38.6198V39.176H32.7997Z" fill="white"/>
<path d="M32.7997 40.2267C34.8389 38.3111 36.2601 37.1988 39.1643 35.3451L39.4733 35.1597L39.5351 35.4687C39.5351 35.4687 39.5969 36.0866 39.6586 36.3338C39.844 36.2102 40.0912 36.0866 40.2766 35.963L39.844 33.8003C38.4228 34.6036 36.878 35.5923 35.2714 36.7663V37.5078L35.2096 37.6314L35.1478 37.6932C34.1592 38.4965 33.6648 38.929 32.7997 39.7941V40.2267Z" fill="white"/>
<path d="M32.7997 43.7488C33.2323 43.3162 33.7266 42.8837 34.221 42.4511C34.2827 42.3893 34.3445 42.3893 34.3445 42.3275C34.9007 41.895 35.4568 41.4007 36.1365 40.9063C36.1365 40.6592 36.1365 40.412 36.0747 40.2266V40.103C34.9625 40.9681 33.9738 41.8332 32.7997 43.0072V43.7488Z" fill="white"/>
<path d="M32.7997 42.3893C33.912 41.3388 34.9007 40.4119 36.1365 39.5468L36.2601 39.4233C37.1252 38.7436 38.1138 38.1256 39.2879 37.3841C39.2261 36.828 39.1643 36.4573 39.1025 35.9011C36.3219 37.6313 35.0243 38.7436 32.7997 40.7827V42.3893Z" fill="white"/>
</svg>
